# This file uses meters as units for non-parametric coordinates.

g default
v 14517.650391 -34.727203 5338.905273
v 10415.658203 -34.727203 3601.115723
v 6940.078125 -34.727203 2509.945557
v 4777.944824 -34.727203 1762.291870
v 4131.325684 -34.727203 2045.187744
v 3888.843018 -34.727203 2530.152344
v 3949.463623 -34.727203 3196.978516
v 4131.325684 -34.727203 3580.908691
v 3949.463623 -34.727203 4025.459473
v 3403.878662 -34.727203 4530.631348
v 3161.396240 -34.727203 4894.354980
v 3100.775391 -34.727203 5439.939453
v 2514.776611 -34.727203 6409.869629
v 2110.639404 -34.727203 6652.351074
v 1888.364136 -34.727203 7016.075195
v 1443.812988 -34.727203 7137.315918
v 1302.365112 -34.727203 7420.211914
v 1464.019897 -34.727203 7480.832031
v 1605.468018 -34.727203 7541.452637
v 837.607422 -34.727203 8935.725586
v 494.091034 -34.727203 9420.690430
v -819.355103 -34.727203 8572.002930
v -637.493347 -34.727203 8046.624512
v -839.562134 -34.727203 7864.762695
v -920.389465 -34.727203 7096.902344
v -1769.077393 -34.727203 7238.350098
v -1991.352783 -34.727203 7137.315918
v -2435.903564 -34.727203 7622.280762
v -2860.247314 -34.727203 7238.350098
v -2395.489990 -34.727203 6955.454590
v -1870.111328 -34.727203 6935.247559
v -1809.491089 -34.727203 5823.869629
v -2213.628662 -34.727203 5722.835449
v -2233.834717 -34.727203 5520.767090
v -1991.352783 -34.727203 5460.146484
v -1950.939087 -34.727203 5621.801758
v -1849.904663 -34.727203 5662.214844
v -1809.491089 -34.727203 5116.629883
v -2375.283203 -34.727203 5015.595703
v -2153.007568 -34.727203 4146.700684
v -1708.456665 -34.727203 4005.252686
v -940.596130 -34.727203 2045.187744
v -2415.697266 -34.727203 1014.637878
v -3446.246094 -34.727203 2388.704346
v -4820.312500 -34.727203 2994.909912
v -5992.311035 -34.727203 2813.048096
v -6618.723633 -34.727203 2065.394531
v -7063.272949 -34.727203 893.396790
v -6942.032715 -34.727203 246.777298
v -7144.101074 -34.727203 -601.910767
v -7709.893066 -34.727203 -1046.461548
v -8639.408203 -34.727203 -1491.012451
v -10094.303711 -34.727203 -1713.287964
v -12256.436523 -34.727203 -702.945129
v -13044.504883 -34.727203 -1329.357788
v -13367.814453 -34.727203 -2117.425049
v -13953.812500 -34.727203 -2137.632080
v -14560.018555 -34.727203 -2218.459473
v -15044.983398 -34.727203 -2642.803467
v -21193.654297 -34.727203 2859.004883
v -21017.166016 -34.727203 13801.111328
v 19150.953125 -34.727203 13695.218750
v 19715.707031 -34.727203 12142.147461
v 19468.628906 -34.727203 10412.588867
v 19080.359375 -34.727203 9459.565430
v 18127.337891 -34.727203 7835.898438
v 17703.771484 -34.727203 8012.384277
v 16997.828125 -34.727203 7553.521973
v 11870.551758 -34.727203 -13695.955078
v 10577.313477 -34.727203 -11978.373047
v 10173.175781 -34.727203 -9816.237305
v 10597.521484 -34.727203 -9816.237305
v 10415.658203 -34.727203 -8624.033203
v 10880.415039 -34.727203 -5209.074707
v 11385.587891 -34.727203 -2097.218262
v 11304.760742 -34.727203 -1086.875366
v 10900.623047 -34.727203 -521.083252
v 10355.038086 -34.727203 -177.566727
v 7526.077637 -34.727203 -157.359848
v 6980.492188 -34.727203 -197.773544
v 6273.252930 -34.727203 -15.911844
v 5606.425781 -34.727203 -379.635284
v 3484.705811 -34.727203 -561.497009
v 1120.503296 -34.727203 -723.151855
v -2031.766846 -34.727203 -662.531311
v -3587.694580 -34.727203 1721.877930
v -4598.037598 -34.727203 2065.394531
v -4981.967285 -34.727203 1782.498657
v -6901.618652 -34.727203 -925.220398
v -8356.512695 -34.727203 -1854.735962
v -9589.131836 -34.727203 -2157.838867
v -10740.921875 -34.727203 -2117.425049
v -12195.815430 -34.727203 -1389.978271
v -12660.573242 -34.727203 -1854.735962
v -12721.194336 -34.727203 -2642.803467
v -12438.298828 -34.727203 -13675.747070
vt 0.181893 0.000000
vt 0.289563 0.000000
vt 0.377197 0.008484
vt 0.432362 0.012230
vt 0.444085 0.024622
vt 0.444909 0.037701
vt 0.437273 0.051969
vt 0.429607 0.058798
vt 0.429463 0.070406
vt 0.436841 0.086792
vt 0.438809 0.097172
vt 0.435014 0.109886
vt 0.438910 0.136995
vt 0.445618 0.146202
vt 0.447136 0.156392
vt 0.455886 0.163281
vt 0.456366 0.170910
vt 0.452197 0.170735
vt 0.448478 0.170751
vt 0.452421 0.209018
vt 0.455494 0.223050
vt 0.492725 0.216546
vt 0.493631 0.203139
vt 0.499842 0.200997
vt 0.508880 0.184671
vt 0.526433 0.195820
vt 0.532333 0.195667
vt 0.537653 0.210651
vt 0.550717 0.206108
vt 0.543041 0.195430
vt 0.531539 0.190027
vt 0.540668 0.164723
vt 0.550615 0.166285
vt 0.552969 0.161978
vt 0.548145 0.158343
vt 0.545721 0.161560
vt 0.543092 0.161507
vt 0.547336 0.148984
vt 0.560880 0.152070
vt 0.564125 0.130638
vt 0.555566 0.123299
vt 0.556957 0.072440
vt 0.599500 0.063413
vt 0.609479 0.103707
vt 0.634343 0.130152
vt 0.662139 0.137155
vt 0.683129 0.126422
vt 0.704071 0.104531
vt 0.707469 0.088998
vt 0.719967 0.072016
vt 0.736750 0.067458
vt 0.761627 0.066328
vt 0.796100 0.075098
vt 0.834691 0.117967
vt 0.858135 0.111456
vt 0.872759 0.096966
vt 0.885991 0.102041
vt 0.900243 0.105958
vt 0.915037 0.101087
vt 1.000000 0.281494
vt 0.892911 0.523338
vt 0.000000 0.142281
vt 0.002074 0.102394
vt 0.023879 0.066234
vt 0.041504 0.048685
vt 0.078021 0.021537
vt 0.085783 0.029458
vt 0.105819 0.025902
vt 0.000000 0.269224
vt 0.551184 1.000000
vt 0.889473 0.758623
vt 0.911806 0.738950
vt 0.915260 0.714443
vt 0.860425 0.687155
vt 0.833122 0.653423
vt 0.814322 0.609480
vt 0.809331 0.544662
vt 0.847303 0.425589
vt 0.847117 0.407633
vt 0.813900 0.385021
vt 0.706934 0.392223
vt 0.633715 0.298772
vt 0.585030 0.223993
vt 0.542445 0.156051
vt 0.538283 0.127754
vt 0.516794 0.110599
vt 0.505653 0.093272
vt 0.440971 0.008631
vt 0.418281 0.000000
vt 0.392108 0.000658
vt 0.359885 0.021110
vt 0.277719 0.106787
vt 0.185521 0.198114
vt 0.145539 0.219645
vt 0.155150 0.232410
vt 0.080957 0.269224
vn 0.000000 1.000000 0.000000
vn 0.000000 1.000000 0.000000
vn 0.000000 1.000000 0.000000
vn 0.000000 1.000000 0.000000
vn 0.000000 1.000000 0.000000
vn 0.000000 1.000000 0.000000
vn 0.000000 1.000000 0.000000
vn 0.000000 1.000000 0.000000
vn 0.000000 1.000000 0.000000
vn 0.000000 1.000000 0.000000
vn 0.000000 1.000000 0.000000
vn 0.000000 1.000000 0.000000
vn 0.000000 1.000000 0.000000
vn 0.000000 1.000000 0.000000
vn 0.000000 1.000000 0.000000
vn 0.000000 1.000000 0.000000
vn 0.000000 1.000000 0.000000
vn 0.000000 1.000000 0.000000
vn 0.000000 1.000000 0.000000
vn 0.000000 1.000000 0.000000
vn 0.000000 1.000000 0.000000
vn 0.000000 1.000000 0.000000
vn 0.000000 1.000000 0.000000
vn 0.000000 1.000000 0.000000
vn 0.000000 1.000000 0.000000
vn 0.000000 1.000000 0.000000
vn 0.000000 1.000000 0.000000
vn 0.000000 1.000000 0.000000
vn 0.000000 1.000000 0.000000
vn 0.000000 1.000000 0.000000
vn 0.000000 1.000000 0.000000
vn 0.000000 1.000000 0.000000
vn 0.000000 1.000000 0.000000
vn 0.000000 1.000000 0.000000
vn 0.000000 1.000000 0.000000
vn 0.000000 1.000000 0.000000
vn 0.000000 1.000000 0.000000
vn 0.000000 1.000000 0.000000
vn 0.000000 1.000000 0.000000
vn 0.000000 1.000000 0.000000
vn 0.000000 1.000000 0.000000
vn 0.000000 1.000000 0.000000
vn 0.000000 1.000000 0.000000
vn 0.000000 1.000000 0.000000
vn 0.000000 1.000000 0.000000
vn 0.000000 1.000000 0.000000
vn 0.000000 1.000000 0.000000
vn 0.000000 1.000000 0.000000
vn 0.000000 1.000000 0.000000
vn 0.000000 1.000000 0.000000
vn 0.000000 1.000000 0.000000
vn 0.000000 1.000000 0.000000
vn 0.000000 1.000000 0.000000
vn 0.000000 1.000000 0.000000
vn 0.000000 1.000000 0.000000
vn 0.000000 1.000000 0.000000
vn 0.000000 1.000000 0.000000
vn 0.000000 1.000000 0.000000
vn 0.000000 1.000000 0.000000
vn 0.000000 1.000000 0.000000
vn 0.000000 1.000000 0.000000
vn 0.000000 1.000000 0.000000
vn 0.000000 1.000000 0.000000
vn 0.000000 1.000000 0.000000
vn 0.000000 1.000000 0.000000
vn 0.000000 1.000000 0.000000
vn 0.000000 1.000000 0.000000
vn 0.000000 1.000000 0.000000
vn 0.000000 1.000000 -0.000000
vn 0.000000 1.000000 -0.000000
vn 0.000000 1.000000 -0.000000
vn 0.000000 1.000000 -0.000000
vn 0.000000 1.000000 -0.000000
vn 0.000000 1.000000 -0.000000
vn 0.000000 1.000000 -0.000000
vn 0.000000 1.000000 -0.000000
vn 0.000000 1.000000 -0.000000
vn 0.000000 1.000000 -0.000000
vn 0.000000 1.000000 -0.000000
vn 0.000000 1.000000 -0.000000
vn 0.000000 1.000000 -0.000000
vn 0.000000 1.000000 -0.000000
vn 0.000000 1.000000 -0.000000
vn 0.000000 1.000000 -0.000000
vn 0.000000 1.000000 -0.000000
vn 0.000000 1.000000 -0.000000
vn 0.000000 1.000000 -0.000000
vn 0.000000 1.000000 -0.000000
vn 0.000000 1.000000 -0.000000
vn 0.000000 1.000000 -0.000000
vn 0.000000 1.000000 -0.000000
vn 0.000000 1.000000 -0.000000
vn 0.000000 1.000000 -0.000000
vn 0.000000 1.000000 -0.000000
vn 0.000000 1.000000 -0.000000
vn 0.000000 1.000000 -0.000000
s off
g polySurface998
f 1/1/1 2/2/2 3/3/3 4/4/4 5/5/5 6/6/6 7/7/7 8/8/8 9/9/9 10/10/10 11/11/11 12/12/12 13/13/13 14/14/14 15/15/15 16/16/16 17/17/17 18/18/18 19/19/19 20/20/20 21/21/21 22/22/22 23/23/23 24/24/24 25/25/25 26/26/26 27/27/27 28/28/28 29/29/29 30/30/30 31/31/31 32/32/32 33/33/33 34/34/34 35/35/35 36/36/36 37/37/37 38/38/38 39/39/39 40/40/40 41/41/41 42/42/42 43/43/43 44/44/44 45/45/45 46/46/46 47/47/47 48/48/48 49/49/49 50/50/50 51/51/51 52/52/52 53/53/53 54/54/54 55/55/55 56/56/56 57/57/57 58/58/58 59/59/59 60/60/60 61/61/61 62/62/62 63/63/63 64/64/64 65/65/65 66/66/66 67/67/67 68/68/68
f 69/69/69 96/70/70 95/71/71 94/72/72 93/73/73 92/74/74 91/75/75 90/76/76 89/77/77 88/78/78 87/79/79 86/80/80 85/81/81 84/82/82 83/83/83 82/84/84 81/85/85 80/86/86 79/87/87 78/88/88 77/89/89 76/90/90 75/91/91 74/92/92 73/93/93 72/94/94 71/95/95 70/96/96
