# This file uses meters as units for non-parametric coordinates.

g default
v -14801.657813 -363.391235 17997.654688
v 21193.653125 -363.391235 17997.654688
v -14801.657813 -363.391235 -17997.654688
v 21193.653125 -363.391235 -17997.654688
vt 0.000000 0.000000
vt 1.000000 0.000000
vt 1.000000 1.000000
vt 0.000000 1.000000
vn 0.000000 1.000000 0.000000
vn 0.000000 1.000000 0.000000
vn 0.000000 1.000000 0.000000
vn 0.000000 1.000000 0.000000
s off
g polySurface994 polySurface18 group1
f 1/1/1 2/2/2 4/3/3 3/4/4
