# This file uses meters as units for non-parametric coordinates.

g default
v -36.799171 0.000000 246.559265
v 36.799171 0.000000 246.559265
v -36.799171 120.151001 246.559265
v 36.799171 120.151001 246.559265
v -36.799171 120.151001 -194.143875
v 36.799171 120.151001 -194.143875
v -36.799171 0.000000 -194.143875
v 36.799171 0.000000 -194.143875
v 0.000001 120.151001 222.754349
v -9.375552 120.151001 232.129898
v -0.000000 120.151001 241.505447
v 9.375552 120.151001 232.129898
v 0.000001 434.966095 222.754349
v -9.375552 434.966095 232.129898
v -0.000000 434.966095 241.505447
v 9.375552 434.966095 232.129898
v 47.753544 502.025696 223.112854
v 38.287579 505.062012 231.886597
v 46.175400 499.999969 232.129898
v 44.597263 497.974304 241.146942
v 54.063248 494.937958 232.373215
v 0.000001 120.151001 -188.870880
v -9.375552 120.151001 -179.495331
v -0.000000 120.151001 -170.119781
v 9.375552 120.151001 -179.495331
v 0.000001 434.966095 -188.870880
v -9.375552 434.966095 -179.495331
v -0.000000 434.966095 -170.119781
v 9.375552 434.966095 -179.495331
v 47.753544 502.025696 -188.512375
v 38.287579 505.062042 -179.738632
v 46.175400 499.999969 -179.495331
v 44.597263 497.974304 -170.478287
v 54.063248 494.937958 -179.252014
v 0.000000 120.151001 222.754349
v 0.000000 434.966125 222.754349
v 0.000000 434.966125 -170.119781
v 0.000000 120.151001 -170.119781
v 44.597267 497.974304 222.754349
v 44.597267 497.974304 -170.119781
vt 0.375000 0.000000
vt 0.625000 0.000000
vt 0.375000 0.250000
vt 0.625000 0.250000
vt 0.375000 0.500000
vt 0.625000 0.500000
vt 0.375000 0.750000
vt 0.625000 0.750000
vt 0.875000 0.000000
vt 0.875000 0.250000
vt 0.375000 0.312500
vt 0.437500 0.312500
vt 0.437500 0.688440
vt 0.375000 0.688440
vt 0.500000 0.312500
vt 0.500000 0.688440
vt 0.562500 0.312500
vt 0.562500 0.688440
vt 0.625000 0.312500
vt 0.625000 0.688440
vt 0.500000 1.000000
vt 0.343750 0.843750
vt 0.500000 0.837500
vt 0.500000 0.687500
vt 0.656250 0.843750
vt 0.500000 1.000000
vt 0.343750 0.843750
vt 0.500000 0.687500
vt 0.656250 0.843750
vt 0.375000 0.312500
vt 0.437500 0.312500
vt 0.437500 0.688440
vt 0.375000 0.688440
vt 0.500000 0.312500
vt 0.500000 0.688440
vt 0.562500 0.312500
vt 0.562500 0.688440
vt 0.625000 0.312500
vt 0.625000 0.688440
vt 0.500000 1.000000
vt 0.343750 0.843750
vt 0.500000 0.837500
vt 0.500000 0.687500
vt 0.656250 0.843750
vt 0.500000 1.000000
vt 0.343750 0.843750
vt 0.500000 0.687500
vt 0.656250 0.843750
vt 0.625000 0.000000
vt 0.875000 0.000000
vt 0.875000 0.250000
vt 0.625000 0.250000
vt 0.000000 0.000000
vt 1.000000 0.000000
vt 1.000000 1.000000
vt 0.000000 1.000000
vn 0.000000 0.000000 1.000000
vn 0.000000 0.000000 1.000000
vn 0.000000 0.000000 1.000000
vn 0.000000 0.000000 1.000000
vn 0.000000 1.000000 0.000000
vn 0.000000 1.000000 0.000000
vn 0.000000 1.000000 0.000000
vn 0.000000 1.000000 0.000000
vn 0.000000 0.000000 -1.000000
vn 0.000000 0.000000 -1.000000
vn 0.000000 0.000000 -1.000000
vn 0.000000 0.000000 -1.000000
vn 1.000000 0.000000 0.000000
vn 1.000000 0.000000 0.000000
vn 1.000000 0.000000 0.000000
vn 1.000000 0.000000 0.000000
vn -0.707106 0.000000 -0.707107
vn -0.707106 0.000000 -0.707107
vn -0.707106 0.000000 -0.707107
vn -0.707106 0.000000 -0.707107
vn -0.707107 0.000000 0.707106
vn -0.707107 0.000000 0.707106
vn -0.707107 0.000000 0.707106
vn -0.707107 0.000000 0.707106
vn 0.707107 0.000000 0.707106
vn 0.707107 0.000000 0.707106
vn 0.707107 0.000000 0.707106
vn 0.707107 0.000000 0.707106
vn 0.707107 0.000000 -0.707107
vn 0.707107 0.000000 -0.707107
vn 0.707107 0.000000 -0.707107
vn 0.707107 0.000000 -0.707107
vn 0.513664 0.813514 0.272661
vn 0.513666 0.813513 0.272662
vn 0.513664 0.813514 0.272661
vn 0.513664 0.813515 0.272660
vn 0.513662 0.813516 0.272659
vn -0.595636 0.414951 -0.687774
vn -0.595637 0.414951 -0.687774
vn -0.595636 0.414951 -0.687774
vn -0.595636 0.414951 -0.687774
vn -0.607089 0.423838 0.672163
vn -0.607089 0.423838 0.672163
vn -0.607090 0.423838 0.672163
vn -0.607089 0.423838 0.672163
vn 0.590305 -0.427927 0.684412
vn 0.590305 -0.427927 0.684412
vn 0.590305 -0.427927 0.684412
vn 0.590305 -0.427927 0.684411
vn 0.601028 -0.434191 -0.671002
vn 0.601028 -0.434191 -0.671002
vn 0.601028 -0.434191 -0.671002
vn 0.601028 -0.434191 -0.671002
vn -0.707106 0.000000 -0.707107
vn -0.707106 0.000000 -0.707107
vn -0.707106 0.000000 -0.707107
vn -0.707106 0.000000 -0.707107
vn -0.707107 0.000000 0.707107
vn -0.707107 0.000000 0.707107
vn -0.707107 0.000000 0.707107
vn -0.707107 0.000000 0.707107
vn 0.707107 0.000000 0.707107
vn 0.707107 0.000000 0.707107
vn 0.707107 0.000000 0.707107
vn 0.707107 0.000000 0.707107
vn 0.707107 0.000000 -0.707107
vn 0.707107 0.000000 -0.707107
vn 0.707107 0.000000 -0.707107
vn 0.707107 0.000000 -0.707107
vn 0.513664 0.813514 0.272661
vn 0.513668 0.813513 0.272659
vn 0.513665 0.813514 0.272659
vn 0.513665 0.813515 0.272657
vn 0.513662 0.813516 0.272660
vn -0.595637 0.414952 -0.687774
vn -0.595637 0.414951 -0.687774
vn -0.595636 0.414951 -0.687774
vn -0.595636 0.414951 -0.687774
vn -0.607088 0.423839 0.672164
vn -0.607088 0.423839 0.672164
vn -0.607088 0.423839 0.672164
vn -0.607088 0.423839 0.672164
vn 0.590304 -0.427927 0.684412
vn 0.590304 -0.427927 0.684412
vn 0.590304 -0.427927 0.684412
vn 0.590304 -0.427927 0.684412
vn 0.601028 -0.434191 -0.671002
vn 0.601028 -0.434191 -0.671002
vn 0.601028 -0.434191 -0.671002
vn 0.601028 -0.434191 -0.671002
vn 1.000000 0.000000 0.000000
vn 1.000000 0.000000 0.000000
vn 1.000000 0.000000 0.000000
vn 1.000000 0.000000 0.000000
vn 0.816229 -0.577728 0.000000
vn 0.816229 -0.577728 0.000000
vn 0.816229 -0.577728 0.000000
vn 0.816229 -0.577728 0.000000
s off
g pCube4
f 1/1/1 2/2/2 4/4/3 3/3/4
f 3/3/5 4/4/6 6/6/7 5/5/8
f 5/5/9 6/6/10 8/8/11 7/7/12
f 2/2/13 8/9/14 6/10/15 4/4/16
f 9/11/17 10/12/18 14/13/19 13/14/20
f 10/12/21 11/15/22 15/16/23 14/13/24
f 11/15/25 12/17/26 16/18/27 15/16/28
f 12/17/29 9/19/30 13/20/31 16/18/32
s 1
f 17/21/33 18/22/34 19/23/35
f 18/22/34 20/24/36 19/23/35
f 20/24/36 21/25/37 19/23/35
f 21/25/37 17/21/33 19/23/35
s off
f 13/26/38 14/27/39 18/22/40 17/21/41
f 14/27/42 15/28/43 20/24/44 18/22/45
f 15/28/46 16/29/47 21/25/48 20/24/49
f 16/29/50 13/26/51 17/21/52 21/25/53
f 22/30/54 23/31/55 27/32/56 26/33/57
f 23/31/58 24/34/59 28/35/60 27/32/61
f 24/34/62 25/36/63 29/37/64 28/35/65
f 25/36/66 22/38/67 26/39/68 29/37/69
s 2
f 30/40/70 31/41/71 32/42/72
f 31/41/71 33/43/73 32/42/72
f 33/43/73 34/44/74 32/42/72
f 34/44/74 30/40/70 32/42/72
s off
f 26/45/75 27/46/76 31/41/77 30/40/78
f 27/46/79 28/47/80 33/43/81 31/41/82
f 28/47/83 29/48/84 34/44/85 33/43/86
f 29/48/87 26/45/88 30/40/89 34/44/90
f 35/49/91 38/50/92 37/51/93 36/52/94
f 36/53/95 37/54/96 40/55/97 39/56/98
