# This file uses centimeters as units for non-parametric coordinates.

mtllib tube.mtl
g default
v 53.282627 0.000000 -112.667359
v 22.095724 0.000000 -229.058460
v -63.108494 0.000000 -314.262659
v -179.499595 0.000000 -345.449562
v -295.890697 0.000000 -314.262659
v -381.094934 0.000000 -229.058460
v -412.281799 0.000000 -112.667359
v -381.094857 0.000000 3.723762
v -295.890658 0.000000 88.927961
v -179.499557 0.000000 120.114825
v -63.108474 0.000000 88.927902
v 22.095705 0.000000 3.723704
v 53.282627 89.593340 -112.667359
v 22.095724 89.593340 -229.058460
v -63.108494 89.593340 -314.262659
v -179.499595 89.593340 -345.449562
v -295.890697 89.593340 -314.262659
v -381.094934 89.593340 -229.058460
v -412.281799 89.593340 -112.667359
v -381.094857 89.593340 3.723762
v -295.890658 89.593340 88.927961
v -179.499557 89.593340 120.114825
v -63.108474 89.593340 88.927902
v 22.095705 89.593340 3.723704
v 111.478178 89.593340 -112.667359
v 72.494539 89.593340 -258.156226
v -34.010709 89.593340 -364.661513
v -179.499595 89.593340 -403.645132
v -324.988502 89.593340 -364.661513
v -431.493711 89.593340 -258.156226
v -470.477369 89.593340 -112.667359
v -431.493711 89.593340 32.821528
v -324.988502 89.593340 139.326776
v -179.499595 89.593340 178.310415
v -34.010709 89.593340 139.326776
v 72.494539 89.593340 32.821528
v 111.478178 0.000000 -112.667359
v 72.494539 0.000000 -258.156226
v -34.010709 0.000000 -364.661513
v -179.499595 0.000000 -403.645132
v -324.988502 0.000000 -364.661513
v -431.493711 0.000000 -258.156226
v -470.477369 0.000000 -112.667359
v -431.493711 0.000000 32.821528
v -324.988502 0.000000 139.326776
v -179.499595 0.000000 178.310415
v -34.010709 0.000000 139.326776
v 72.494539 0.000000 32.821528
vt 0.000000 1.000000
vt 0.083333 1.000000
vt 0.166667 1.000000
vt 0.250000 1.000000
vt 0.333333 1.000000
vt 0.416667 1.000000
vt 0.500000 1.000000
vt 0.583333 1.000000
vt 0.666667 1.000000
vt 0.750000 1.000000
vt 0.833333 1.000000
vt 0.916667 1.000000
vt 1.000000 1.000000
vt 0.000000 0.750000
vt 0.083333 0.750000
vt 0.166667 0.750000
vt 0.250000 0.750000
vt 0.333333 0.750000
vt 0.416667 0.750000
vt 0.500000 0.750000
vt 0.583333 0.750000
vt 0.666667 0.750000
vt 0.750000 0.750000
vt 0.833333 0.750000
vt 0.916667 0.750000
vt 1.000000 0.750000
vt 0.000000 0.500000
vt 0.083333 0.500000
vt 0.166667 0.500000
vt 0.250000 0.500000
vt 0.333333 0.500000
vt 0.416667 0.500000
vt 0.500000 0.500000
vt 0.583333 0.500000
vt 0.666667 0.500000
vt 0.750000 0.500000
vt 0.833333 0.500000
vt 0.916667 0.500000
vt 1.000000 0.500000
vt 0.000000 0.250000
vt 0.083333 0.250000
vt 0.166667 0.250000
vt 0.250000 0.250000
vt 0.333333 0.250000
vt 0.416667 0.250000
vt 0.500000 0.250000
vt 0.583333 0.250000
vt 0.666667 0.250000
vt 0.750000 0.250000
vt 0.833333 0.250000
vt 0.916667 0.250000
vt 1.000000 0.250000
vt 0.000000 0.000000
vt 1.000000 0.000000
vt 1.000000 0.200000
vt 0.000000 0.200000
vt 0.000000 0.000000
vt 1.000000 0.000000
vt 1.000000 0.200000
vt 0.000000 0.200000
vn -0.866025 0.000000 0.500000
vn -1.000000 0.000000 -0.000000
vn -1.000000 0.000000 -0.000000
vn -0.866025 0.000000 0.500000
vn -0.500000 0.000000 0.866025
vn -0.500000 0.000000 0.866025
vn 0.000000 0.000000 1.000000
vn 0.000000 0.000000 1.000000
vn 0.500000 0.000000 0.866025
vn 0.500000 0.000000 0.866025
vn 0.866025 0.000000 0.500000
vn 0.866025 0.000000 0.500000
vn 1.000000 0.000000 -0.000000
vn 1.000000 0.000000 -0.000000
vn 0.866025 0.000000 -0.500000
vn 0.866025 0.000000 -0.500000
vn 0.500000 0.000000 -0.866025
vn 0.500000 0.000000 -0.866025
vn -0.000000 0.000000 -1.000000
vn -0.000000 0.000000 -1.000000
vn -0.258819 0.000000 -0.965926
vn -0.258819 0.000000 -0.965926
vn -0.965926 0.000000 -0.258819
vn -0.965926 0.000000 -0.258819
vn 0.000000 1.000000 0.000000
vn 0.000000 1.000000 0.000000
vn 0.000000 1.000000 0.000000
vn 0.000000 1.000000 0.000000
vn 0.000000 1.000000 0.000000
vn 0.000000 1.000000 0.000000
vn 0.000000 1.000000 0.000000
vn 0.000000 1.000000 0.000000
vn 0.000000 1.000000 0.000000
vn 0.000000 1.000000 0.000000
vn 0.000000 1.000000 -0.000000
vn 0.000000 1.000000 -0.000000
vn 0.000000 1.000000 0.000000
vn 0.000000 1.000000 0.000000
vn 0.000000 1.000000 0.000000
vn 0.000000 1.000000 0.000000
vn 0.000000 1.000000 -0.000000
vn 0.000000 1.000000 -0.000000
vn 0.000000 1.000000 -0.000000
vn 0.000000 1.000000 -0.000000
vn 0.000000 1.000000 -0.000000
vn 0.000000 1.000000 -0.000000
vn 0.000000 1.000000 0.000000
vn 0.000000 1.000000 0.000000
vn 0.866025 0.000000 -0.500000
vn 1.000000 0.000000 0.000000
vn 1.000000 0.000000 0.000000
vn 0.866025 0.000000 -0.500000
vn 0.500000 0.000000 -0.866025
vn 0.500000 0.000000 -0.866025
vn 0.000000 0.000000 -1.000000
vn 0.000000 0.000000 -1.000000
vn -0.500000 0.000000 -0.866025
vn -0.500000 0.000000 -0.866025
vn -0.866025 0.000000 -0.500000
vn -0.866025 0.000000 -0.500000
vn -1.000000 0.000000 0.000000
vn -1.000000 0.000000 0.000000
vn -0.866025 0.000000 0.500000
vn -0.866025 0.000000 0.500000
vn -0.500000 0.000000 0.866025
vn -0.500000 0.000000 0.866025
vn 0.000000 0.000000 1.000000
vn 0.000000 0.000000 1.000000
vn 0.258819 0.000000 0.965926
vn 0.258819 0.000000 0.965926
vn 0.965926 0.000000 0.258819
vn 0.965926 0.000000 0.258819
vn -0.500001 0.000000 0.866025
vn -0.500001 0.000000 0.866025
vn -0.500001 0.000000 0.866025
vn -0.500001 0.000000 0.866025
vn 0.866026 0.000000 -0.500000
vn 0.866026 0.000000 -0.500000
vn 0.866026 0.000000 -0.500000
vn 0.866026 0.000000 -0.500000
s 1
g pPipe1
usemtl initialShadingGroup
f 2/2/1 1/1/2 13/14/3 14/15/4
f 3/3/5 2/2/1 14/15/4 15/16/6
f 4/4/7 3/3/5 15/16/6 16/17/8
f 5/5/9 4/4/7 16/17/8 17/18/10
f 6/6/11 5/5/9 17/18/10 18/19/12
f 7/7/13 6/6/11 18/19/12 19/20/14
f 8/8/15 7/7/13 19/20/14 20/21/16
f 9/9/17 8/8/15 20/21/16 21/22/18
f 10/10/19 9/9/17 21/22/18 22/23/20
f 11/11/21 10/10/19 22/23/20 23/24/22
f 1/13/2 12/12/23 24/25/24 13/26/3
s 2
f 14/15/25 13/14/26 25/27/27 26/28/28
f 15/16/29 14/15/25 26/28/28 27/29/30
f 16/17/31 15/16/29 27/29/30 28/30/32
f 17/18/33 16/17/31 28/30/32 29/31/34
f 18/19/35 17/18/33 29/31/34 30/32/36
f 19/20/37 18/19/35 30/32/36 31/33/38
f 20/21/39 19/20/37 31/33/38 32/34/40
f 21/22/41 20/21/39 32/34/40 33/35/42
f 22/23/43 21/22/41 33/35/42 34/36/44
f 23/24/45 22/23/43 34/36/44 35/37/46
f 13/26/26 24/25/47 36/38/48 25/39/27
s 3
f 26/28/49 25/27/50 37/40/51 38/41/52
f 27/29/53 26/28/49 38/41/52 39/42/54
f 28/30/55 27/29/53 39/42/54 40/43/56
f 29/31/57 28/30/55 40/43/56 41/44/58
f 30/32/59 29/31/57 41/44/58 42/45/60
f 31/33/61 30/32/59 42/45/60 43/46/62
f 32/34/63 31/33/61 43/46/62 44/47/64
f 33/35/65 32/34/63 44/47/64 45/48/66
f 34/36/67 33/35/65 45/48/66 46/49/68
f 35/37/69 34/36/67 46/49/68 47/50/70
f 25/39/50 36/38/71 48/51/72 37/52/51
s off
f 48/53/73 36/54/74 24/55/75 12/56/76
f 11/57/77 23/58/78 35/59/79 47/60/80
