# This file uses meters as units for non-parametric coordinates.

mtllib MBS_LOD3.mtl
g default
v 756.781311 20550.289063 -16597.074219
v 5538.303711 20550.289063 -15135.215820
v 6104.931641 20592.019531 16944.757813
v 1683.566162 20592.019531 18296.505859
v 4808.869141 20550.283203 19914.394531
v 1356.147461 19033.902344 -16413.828125
v 4938.938477 19033.902344 -15318.458984
v 5235.409180 19020.623047 15293.815430
v 1256.931396 19020.623047 16510.156250
v 4135.229492 19063.550781 18138.417969
v 2490.486084 20550.289063 0.000111
v 2049.078125 19031.785156 218.841888
v -2916.818359 19025.333984 218.841431
v -2974.354248 20550.289063 0.000000
v -2692.501953 0.000000 3199.999756
v 2692.501953 0.000000 3199.999756
v -2077.579346 18288.689453 3199.999756
v 2077.579346 18288.689453 3199.999756
v -1958.641479 18288.689453 -3200.000000
v 1958.641479 18288.689453 -3200.000000
v -2692.501953 0.000000 -3200.000000
v 2692.501953 0.000000 -3200.000000
v 1429.850220 8650.936523 3199.999756
v -1429.850220 8650.936523 3199.999756
v -1429.850220 8650.936523 -3200.000000
v 1429.850220 8650.936523 -3200.000000
v -1460.782471 18288.689453 2557.984131
v 1460.782471 18288.689453 2557.984131
v 1377.155029 18288.689453 -2557.984619
v -1377.155029 18288.689453 -2557.984619
v -1460.782471 19300.000000 2557.984131
v 1460.782471 19300.000000 2557.984131
v 1377.155029 19300.000000 -2557.984619
v -1377.155029 19300.000000 -2557.984619
v 1506.178589 0.000000 15231.380859
v 5425.455566 0.000000 14033.138672
v 863.804260 18288.689453 15427.775391
v 4837.401855 18288.689453 14212.923828
v -893.633850 18288.689453 9272.651367
v 2852.482178 18288.689453 8127.348145
v -364.999969 0.000000 9111.030273
v 3554.277100 0.000000 7912.788574
v 4217.975586 8650.936523 14402.302734
v 1504.477295 8650.936523 15231.901367
v -366.701324 8650.936523 9111.550781
v 2346.796875 8650.936523 8281.952148
v 1265.942749 18288.689453 14633.479492
v 4059.849121 18288.689453 13779.296875
v 2484.111328 18288.689453 8911.321289
v -149.848557 18288.689453 9716.603516
v 1265.942749 19300.000000 14633.479492
v 4059.849121 19300.000000 13779.296875
v 2484.111328 19300.000000 8911.321289
v -149.848557 19300.000000 9716.603516
v -4454.871582 0.000000 -9487.211914
v 3554.252686 0.000000 -7912.788574
v -1007.398987 18288.689453 -9307.425781
v 2966.198730 18288.689453 -8092.575195
v 977.520630 18288.689453 -15393.001953
v 4723.636719 18288.689453 -14247.699219
v -2583.692871 0.000000 -15607.562500
v 5425.431152 0.000000 -14033.138672
v 2346.772461 8650.936523 -8281.953125
v -387.972656 8650.936523 -9118.047852
v 1483.206299 8650.936523 -15238.398438
v 4217.951172 8650.936523 -14402.302734
v -229.846191 18288.689453 -9741.053711
v 2564.060303 18288.689453 -8886.871094
v 3979.851563 18288.689453 -13803.748047
v 1345.891724 18288.689453 -14609.030273
v -229.846191 19300.000000 -9741.053711
v 2564.060303 19300.000000 -8886.871094
v 3979.851563 19300.000000 -13803.748047
v 1345.891724 19300.000000 -14609.030273
v 1376.813354 20550.289063 13780.547852
v 3700.559326 20550.289063 13070.106445
v 1376.813354 22433.107422 13780.547852
v 3700.559326 22433.107422 13070.106445
v 513.838013 22433.107422 10957.881836
v 2837.584229 22433.107422 10247.441406
v 513.838013 20550.289063 10957.881836
v 2837.584229 20550.289063 10247.441406
v 163.648834 20550.289063 -10487.078125
v 2487.395020 20550.289063 -9776.637695
v 163.648834 22433.107422 -10487.078125
v 2487.395020 22433.107422 -9776.637695
v 1026.624146 22433.107422 -13309.744141
v 3350.370117 22433.107422 -12599.303711
v 1026.624146 20550.289063 -13309.744141
v 3350.370117 20550.289063 -12599.303711
v -1349.079590 20550.289063 4516.120605
v 1080.842529 20550.289063 4516.120605
v -1349.079590 21865.574219 4516.120605
v 1080.842529 21865.574219 4516.120605
v -1349.079590 21865.574219 -4333.481934
v 1080.842529 21865.574219 -4333.481934
v -1349.079590 20550.289063 -4333.481934
v 1080.842529 20550.289063 -4333.481934
v 2296.789063 20550.292969 16789.648438
v 4620.535156 20550.292969 16079.208008
v 2296.789063 21650.105469 16789.648438
v 4620.535156 21650.105469 16079.208008
v 1376.814209 21650.105469 13780.547852
v 3700.560303 21650.105469 13070.108398
v 1376.814209 20550.292969 13780.547852
v 3700.560303 20550.292969 13070.108398
v 3216.579102 20550.292969 17793.851563
v 4419.538086 20550.292969 17426.070313
v 4419.538086 21650.105469 17426.070313
v 3216.579102 21650.105469 17793.851563
vt 0.129282 0.074248
vt 0.119092 0.459423
vt 0.082409 0.454794
vt 0.090176 0.075069
vt 0.218141 0.074886
vt 0.237843 0.459019
vt 0.227234 0.834661
vt 0.135808 0.836639
vt 0.104338 0.887814
vt 0.184714 0.890342
vt 0.187393 0.946140
vt 0.233214 0.038853
vt 0.114520 0.038079
vt 0.257070 0.072253
vt 0.276044 0.454051
vt 0.260843 0.886653
vt 0.777364 0.773006
vt 0.800112 0.599204
vt 0.692023 0.599920
vt 0.717071 0.773406
vt 0.717071 0.773406
vt 0.692023 0.599920
vt 0.800112 0.599204
vt 0.777364 0.773006
vt 0.532535 0.283811
vt 0.532535 0.025136
vt 0.731499 0.025543
vt 0.731499 0.284217
vt 0.370534 0.774220
vt 0.370534 0.599753
vt 0.506666 0.599752
vt 0.506666 0.774220
vt 0.790097 0.966382
vt 0.706903 0.966933
vt 0.370534 0.966800
vt 0.506666 0.966799
vt 0.706903 0.966933
vt 0.790097 0.966382
vt 0.533364 0.570567
vt 0.731499 0.570567
vt 0.935025 0.574258
vt 0.935024 0.458743
vt 0.961475 0.458743
vt 0.961475 0.574258
vt 0.935024 0.293714
vt 0.961475 0.293714
vt 0.935024 0.178200
vt 0.961475 0.178200
vt 0.935024 0.013172
vt 0.961475 0.013172
vt 0.646669 0.773460
vt 0.646773 0.600044
vt 0.564618 0.599977
vt 0.588344 0.773413
vt 0.588344 0.773413
vt 0.564618 0.599977
vt 0.646773 0.600044
vt 0.646669 0.773460
vt 0.332959 0.283811
vt 0.332963 0.025136
vt 0.532535 0.025136
vt 0.532535 0.283811
vt 0.370534 0.774220
vt 0.370534 0.599753
vt 0.506666 0.599752
vt 0.506666 0.774220
vt 0.659838 0.966668
vt 0.576752 0.966601
vt 0.370534 0.966800
vt 0.506666 0.966799
vt 0.576752 0.966601
vt 0.659838 0.966668
vt 0.332954 0.570160
vt 0.533364 0.570567
vt 0.935025 0.574258
vt 0.935024 0.458743
vt 0.961475 0.458743
vt 0.961475 0.574258
vt 0.935024 0.293714
vt 0.961475 0.293714
vt 0.935024 0.178200
vt 0.961475 0.178200
vt 0.935024 0.013172
vt 0.961475 0.013172
vt 0.906412 0.773663
vt 0.977953 0.600028
vt 0.816926 0.599225
vt 0.840003 0.773332
vt 0.840003 0.773332
vt 0.816926 0.599225
vt 0.977953 0.600028
vt 0.906412 0.773663
vt 0.432692 0.283811
vt 0.432692 0.025136
vt 0.632264 0.025136
vt 0.632268 0.283811
vt 0.370534 0.774220
vt 0.370534 0.599753
vt 0.506666 0.599752
vt 0.506666 0.774220
vt 0.910923 0.967524
vt 0.827564 0.967109
vt 0.370534 0.966800
vt 0.506666 0.966799
vt 0.827564 0.967109
vt 0.910923 0.967524
vt 0.432692 0.570160
vt 0.632274 0.570160
vt 0.935025 0.574258
vt 0.935024 0.458743
vt 0.961475 0.458743
vt 0.961475 0.574258
vt 0.935024 0.293714
vt 0.961475 0.293714
vt 0.935024 0.178200
vt 0.961475 0.178200
vt 0.935024 0.013172
vt 0.961475 0.013172
vt 0.837364 0.426078
vt 0.837332 0.458482
vt 0.812223 0.458457
vt 0.812256 0.426052
vt 0.812151 0.530224
vt 0.812183 0.497819
vt 0.837292 0.497844
vt 0.837259 0.530249
vt 0.837219 0.569611
vt 0.812111 0.569586
vt 0.837364 0.426078
vt 0.837332 0.458482
vt 0.812223 0.458457
vt 0.812256 0.426052
vt 0.812151 0.530224
vt 0.812183 0.497819
vt 0.837292 0.497844
vt 0.837259 0.530249
vt 0.837219 0.569611
vt 0.812111 0.569586
vt 0.763701 0.581331
vt 0.763686 0.546771
vt 0.782394 0.546763
vt 0.782409 0.581324
vt 0.782327 0.386334
vt 0.782341 0.420894
vt 0.763634 0.420902
vt 0.763619 0.386342
vt 0.763566 0.260473
vt 0.782273 0.260466
vt 0.861825 0.473184
vt 0.861799 0.449637
vt 0.882387 0.449614
vt 0.882413 0.473162
vt 0.861772 0.424145
vt 0.861707 0.365244
vt 0.882295 0.365221
vt 0.882359 0.424123
vt 0.861918 0.557577
vt 0.861853 0.498675
vt 0.882441 0.498653
vt 0.882505 0.557554
vn -0.289392 -0.940755 -0.176726
vn -0.383158 -0.923585 0.013450
vn -0.990845 -0.134796 -0.007514
vn -0.945132 -0.234246 -0.227716
vn 0.287809 -0.956821 -0.040731
vn 0.255222 -0.966843 -0.008766
vn 0.395007 -0.916309 -0.065935
vn -0.485971 -0.860445 0.153186
vn -0.813212 -0.319936 0.486135
vn 0.141407 -0.869947 0.472436
vn 0.187596 -0.793568 0.578842
vn 0.292372 -0.000001 -0.956305
vn 0.292372 -0.000001 -0.956305
vn 0.931082 -0.317188 0.180220
vn 0.948581 -0.316533 0.001028
vn 0.880118 -0.474741 -0.003580
vn 0.000000 0.000000 1.000000
vn 0.000000 0.000000 1.000000
vn 0.000000 0.000000 1.000000
vn 0.000000 0.000000 1.000000
vn 0.000000 0.000000 -1.000000
vn 0.000000 0.000000 -1.000000
vn 0.000000 0.000000 -1.000000
vn 0.000000 0.000000 -1.000000
vn 0.999309 0.036849 -0.004893
vn 0.989516 0.144425 0.000000
vn 0.989516 0.144425 0.000000
vn 0.999309 0.036849 -0.004893
vn -0.999309 0.036849 -0.004893
vn -0.989516 0.144425 0.000000
vn -0.989516 0.144425 0.000000
vn -0.999309 0.036849 -0.004893
vn 0.000000 0.000000 1.000000
vn 0.000000 0.000000 1.000000
vn -0.998100 -0.060921 -0.009274
vn -0.998100 -0.060921 -0.009274
vn 0.000000 0.000000 -1.000000
vn 0.000000 0.000000 -1.000000
vn 0.998100 -0.060921 -0.009274
vn 0.998100 -0.060921 -0.009274
vn 0.000000 0.000000 1.000000
vn 0.000000 0.000000 1.000000
vn 0.000000 0.000000 1.000000
vn 0.000000 0.000000 1.000000
vn 0.999866 0.000000 -0.016344
vn 0.999866 0.000000 -0.016344
vn 0.999866 0.000000 -0.016344
vn 0.999866 0.000000 -0.016344
vn 0.000000 0.000000 -1.000000
vn 0.000000 0.000000 -1.000000
vn 0.000000 0.000000 -1.000000
vn 0.000000 0.000000 -1.000000
vn -0.999866 0.000000 -0.016344
vn -0.999866 0.000000 -0.016344
vn -0.999866 0.000000 -0.016344
vn -0.999866 0.000000 -0.016344
vn 0.292371 -0.000000 0.956305
vn 0.292371 -0.000000 0.956305
vn 0.292371 -0.000000 0.956305
vn 0.292371 -0.000000 0.956305
vn -0.292372 0.000000 -0.956305
vn -0.292372 0.000000 -0.956305
vn -0.292372 0.000000 -0.956305
vn -0.292372 0.000000 -0.956305
vn 0.954213 0.036849 -0.296849
vn 0.946279 0.144425 -0.289306
vn 0.946279 0.144425 -0.289306
vn 0.954213 0.036849 -0.296849
vn -0.957189 -0.033458 0.287525
vn -0.956305 -0.000206 0.292372
vn -0.956305 -0.000206 0.292372
vn -0.957189 -0.033458 0.287525
vn 0.292371 0.000000 0.956305
vn 0.292371 0.000000 0.956305
vn -0.957062 -0.063213 0.282907
vn -0.957062 -0.063213 0.282907
vn -0.292372 0.000000 -0.956305
vn -0.292372 0.000000 -0.956305
vn 0.951776 -0.060921 -0.300685
vn 0.951776 -0.060921 -0.300685
vn 0.292372 0.000000 0.956305
vn 0.292372 0.000000 0.956305
vn 0.292372 0.000000 0.956305
vn 0.292372 0.000000 0.956305
vn 0.951398 0.000000 -0.307963
vn 0.951398 0.000000 -0.307963
vn 0.951398 0.000000 -0.307963
vn 0.951398 0.000000 -0.307963
vn -0.292372 0.000000 -0.956305
vn -0.292372 0.000000 -0.956305
vn -0.292372 0.000000 -0.956305
vn -0.292372 0.000000 -0.956305
vn -0.960956 0.000000 0.276703
vn -0.960956 0.000000 0.276703
vn -0.960956 0.000000 0.276703
vn -0.960956 0.000000 0.276703
vn -0.246005 0.022898 0.968998
vn -0.218777 0.036156 0.975105
vn -0.218777 0.036156 0.975105
vn -0.248702 0.021577 0.968340
vn 0.247958 -0.021942 -0.968522
vn 0.218777 -0.036156 -0.975105
vn 0.218777 -0.036156 -0.975105
vn 0.245287 -0.023249 -0.969172
vn 0.957075 0.036849 0.287490
vn 0.946279 0.144425 0.289306
vn 0.946279 0.144425 0.289306
vn 0.957075 0.036849 0.287490
vn -0.939895 0.176132 -0.292531
vn -0.868118 0.419438 -0.265410
vn -0.868118 0.419438 -0.265410
vn -0.937515 0.189945 -0.291525
vn -0.292371 0.000000 0.956305
vn -0.292371 0.000000 0.956305
vn -0.951776 -0.060921 -0.300685
vn -0.951776 -0.060921 -0.300685
vn 0.292372 0.000000 -0.956305
vn 0.292372 0.000000 -0.956305
vn 0.957199 -0.060921 0.282947
vn 0.957199 -0.060921 0.282947
vn -0.292372 0.000000 0.956305
vn -0.292372 0.000000 0.956305
vn -0.292372 0.000000 0.956305
vn -0.292372 0.000000 0.956305
vn 0.960956 0.000000 0.276703
vn 0.960956 0.000000 0.276703
vn 0.960956 0.000000 0.276703
vn 0.960956 0.000000 0.276703
vn 0.292371 0.000000 -0.956305
vn 0.292371 0.000000 -0.956305
vn 0.292371 0.000000 -0.956305
vn 0.292371 0.000000 -0.956305
vn -0.951398 0.000000 -0.307963
vn -0.951398 0.000000 -0.307963
vn -0.951398 0.000000 -0.307963
vn -0.951398 0.000000 -0.307963
vn 0.292372 0.000000 0.956305
vn 0.292372 0.000000 0.956305
vn 0.292372 0.000000 0.956305
vn 0.292372 0.000000 0.956305
vn -0.292372 0.000000 -0.956305
vn -0.292372 0.000000 -0.956305
vn -0.292372 0.000000 -0.956305
vn -0.292372 0.000000 -0.956305
vn 0.956305 0.000000 -0.292372
vn 0.956305 0.000000 -0.292372
vn 0.956305 0.000000 -0.292372
vn 0.956305 0.000000 -0.292372
vn -0.956305 0.000000 0.292372
vn -0.956305 0.000000 0.292372
vn -0.956305 0.000000 0.292372
vn -0.956305 0.000000 0.292372
vn -0.292372 0.000000 0.956305
vn -0.292372 0.000000 0.956305
vn -0.292372 0.000000 0.956305
vn -0.292372 0.000000 0.956305
vn 0.292372 0.000000 -0.956305
vn 0.292372 0.000000 -0.956305
vn 0.292372 0.000000 -0.956305
vn 0.292372 0.000000 -0.956305
vn 0.956305 0.000000 0.292372
vn 0.956305 0.000000 0.292372
vn 0.956305 0.000000 0.292372
vn 0.956305 0.000000 0.292372
vn -0.956305 0.000000 -0.292372
vn -0.956305 0.000000 -0.292372
vn -0.956305 0.000000 -0.292372
vn -0.956305 0.000000 -0.292372
vn 0.000000 0.000000 1.000000
vn 0.000000 0.000000 1.000000
vn 0.000000 0.000000 1.000000
vn 0.000000 0.000000 1.000000
vn 0.000000 0.000000 -1.000000
vn 0.000000 0.000000 -1.000000
vn 0.000000 0.000000 -1.000000
vn 0.000000 0.000000 -1.000000
vn 1.000000 0.000000 0.000000
vn 1.000000 0.000000 0.000000
vn 1.000000 0.000000 0.000000
vn 1.000000 0.000000 0.000000
vn -1.000000 0.000000 0.000000
vn -1.000000 0.000000 0.000000
vn -1.000000 0.000000 0.000000
vn -1.000000 0.000000 0.000000
vn -0.287181 0.000000 0.957876
vn 0.773722 0.000000 0.633526
vn 0.773722 0.000000 0.633526
vn -0.287181 0.000000 0.957876
vn 0.986650 0.000000 -0.162853
vn 0.956305 0.000000 -0.292372
vn 0.956305 0.000000 -0.292372
vn 0.986650 0.000000 -0.162853
vn -0.956305 0.000000 0.292372
vn -0.909036 0.000000 0.416718
vn -0.909036 0.000000 0.416718
vn -0.956305 0.000000 0.292372
vn 0.986650 0.000000 -0.162853
vn 0.986650 0.000000 -0.162853
vn 0.773722 0.000000 0.633526
vn 0.773722 0.000000 0.633526
vn -0.909036 0.000000 0.416718
vn -0.909036 0.000000 0.416718
vn -0.287181 0.000000 0.957876
vn -0.287181 0.000000 0.957876
s 1
g pCube12
usemtl lambert2SG
f 6/1/1 13/2/2 14/3/3 1/4/4
f 7/5/5 12/6/6 13/2/2 6/1/1
f 8/7/7 9/8/8 13/2/2 12/6/6
f 9/8/8 4/9/9 14/3/3 13/2/2
f 8/7/7 10/10/10 9/8/8
f 5/11/11 4/9/9 9/8/8 10/10/10
f 2/12/12 7/5/5 6/1/1 1/13/13
f 7/5/5 2/14/14 11/15/15 12/6/6
f 5/11/11 10/10/10 8/7/7 3/16/16
f 8/7/7 12/6/6 11/15/15 3/16/16
s 2
f 24/17/17 15/18/18 16/19/19 23/20/20
s 3
f 26/21/21 22/22/22 21/23/23 25/24/24
s 4
f 23/25/25 16/26/26 22/27/27 26/28/28
s 5
f 25/29/29 21/30/30 15/31/31 24/32/32
s 2
f 17/33/33 24/17/17 23/20/20 18/34/34
s 5
f 19/35/35 25/29/29 24/32/32 17/36/36
s 3
f 20/37/37 26/21/21 25/24/24 19/38/38
s 4
f 18/39/39 23/25/25 26/28/28 20/40/40
s off
f 27/41/41 28/42/42 32/43/43 31/44/44
f 28/42/45 29/45/46 33/46/47 32/43/48
f 29/45/49 30/47/50 34/48/51 33/46/52
f 30/47/53 27/49/54 31/50/55 34/48/56
s 6
f 44/51/57 35/52/58 36/53/59 43/54/60
s 7
f 46/55/61 42/56/62 41/57/63 45/58/64
s 8
f 43/59/65 36/60/66 42/61/67 46/62/68
s 9
f 45/63/69 41/64/70 35/65/71 44/66/72
s 6
f 37/67/73 44/51/57 43/54/60 38/68/74
s 9
f 39/69/75 45/63/69 44/66/72 37/70/76
s 7
f 40/71/77 46/55/61 45/58/64 39/72/78
s 8
f 38/73/79 43/59/65 46/62/68 40/74/80
s off
f 47/75/81 48/76/82 52/77/83 51/78/84
f 48/76/85 49/79/86 53/80/87 52/77/88
f 49/79/89 50/81/90 54/82/91 53/80/92
f 50/81/93 47/83/94 51/84/95 54/82/96
s 10
f 64/85/97 55/86/98 56/87/99 63/88/100
s 11
f 66/89/101 62/90/102 61/91/103 65/92/104
s 12
f 63/93/105 56/94/106 62/95/107 66/96/108
s 13
f 65/97/109 61/98/110 55/99/111 64/100/112
s 10
f 57/101/113 64/85/97 63/88/100 58/102/114
s 13
f 59/103/115 65/97/109 64/100/112 57/104/116
s 11
f 60/105/117 66/89/101 65/92/104 59/106/118
s 12
f 58/107/119 63/93/105 66/96/108 60/108/120
s off
f 67/109/121 68/110/122 72/111/123 71/112/124
f 68/110/125 69/113/126 73/114/127 72/111/128
f 69/113/129 70/115/130 74/116/131 73/114/132
f 70/115/133 67/117/134 71/118/135 74/116/136
f 75/119/137 76/120/138 78/121/139 77/122/140
f 79/123/141 80/124/142 82/125/143 81/126/144
f 76/120/145 82/125/146 80/124/147 78/121/148
f 81/126/149 75/127/150 77/128/151 79/123/152
f 83/129/153 84/130/154 86/131/155 85/132/156
f 87/133/157 88/134/158 90/135/159 89/136/160
f 84/130/161 90/135/162 88/134/163 86/131/164
f 89/136/165 83/137/166 85/138/167 87/133/168
f 91/139/169 92/140/170 94/141/171 93/142/172
f 95/143/173 96/144/174 98/145/175 97/146/176
f 92/140/177 98/145/178 96/144/179 94/141/180
f 97/146/181 91/147/182 93/148/183 95/143/184
f 107/149/185 108/150/186 109/151/187 110/152/188
f 100/153/189 106/154/190 104/155/191 102/156/192
f 105/157/193 99/158/194 101/159/195 103/160/196
f 100/153/197 102/156/198 109/151/199 108/150/200
f 101/159/201 99/158/202 107/149/203 110/152/204
