# This file uses meters as units for non-parametric coordinates.

mtllib CapitalLand_LOD3.mtl
g default
v -5145.696259 2064.727020 2239.401627
v 1886.670113 2064.727020 2283.293915
v -5145.696259 16558.373260 2239.401627
v 1886.670113 16558.373260 2283.293915
v -1916.210556 16558.373260 -3671.466446
v 1896.516800 16558.373260 -2850.372696
v -1916.210556 2064.727020 -3671.466446
v 1896.516800 2064.727020 -2850.372696
v 890.624237 16558.373260 -3675.403595
v 890.624237 2064.727020 -3675.403595
v -3108.822632 2064.727020 3424.813080
v -3108.822632 16558.373260 3424.813080
v -7719.198608 0.000763 4016.557693
v 2572.041702 0.000000 4016.557693
v -7719.198608 2051.193237 4016.557693
v 2572.041702 2051.191711 4016.557693
v 2572.041702 2051.191711 -3686.376953
v 2572.041702 0.000000 -3686.376953
v -7749.712372 2051.192474 -3720.776749
v -7749.712372 0.000763 -3720.776367
vt 0.375000 0.000000
vt 0.625000 0.000000
vt 0.375000 0.250000
vt 0.625000 0.250000
vt 0.375000 0.500000
vt 0.625000 0.500000
vt 0.375000 0.750000
vt 0.625000 0.750000
vt 0.875000 0.000000
vt 0.875000 0.250000
vt 0.125000 0.000000
vt 0.125000 0.250000
vt 0.492805 0.500000
vt 0.492805 0.750000
vt 0.492805 0.000000
vt 0.492805 0.250000
vt 0.375000 0.000000
vt 0.625000 0.000000
vt 0.625000 0.250000
vt 0.375000 0.250000
vt 0.625000 0.500000
vt 0.398604 0.468753
vt 0.398604 0.781247
vt 0.625000 0.750000
vt 0.875000 0.000000
vt 0.875000 0.250000
vt 0.187494 0.250000
vt 0.187494 0.000000
vn -0.502995 0.000000 0.864289
vn -0.502995 0.000000 0.864289
vn -0.502995 0.000000 0.864289
vn -0.502995 0.000000 0.864289
vn 0.000000 1.000000 -0.000000
vn 0.000000 1.000000 -0.000000
vn 0.000000 1.000000 -0.000000
vn 0.000000 1.000000 -0.000000
vn -0.001403 0.000000 -0.999999
vn -0.001403 0.000000 -0.999999
vn -0.001403 0.000000 -0.999999
vn -0.001403 0.000000 -0.999999
vn 0.999998 0.000000 0.001918
vn 0.999998 0.000000 0.001918
vn 0.999998 0.000000 0.001918
vn 0.999998 0.000000 0.001918
vn -0.877560 0.000000 -0.479467
vn -0.877560 0.000000 -0.479467
vn -0.877560 0.000000 -0.479467
vn -0.877560 0.000000 -0.479467
vn 0.634171 0.000000 -0.773193
vn 0.634171 0.000000 -0.773193
vn 0.634171 0.000000 -0.773193
vn 0.634171 0.000000 -0.773193
vn 0.222768 0.000000 0.974872
vn 0.222768 0.000000 0.974872
vn 0.222768 0.000000 0.974872
vn 0.222768 0.000000 0.974872
vn 0.000000 1.000000 0.000000
vn 0.000000 1.000000 0.000000
vn 0.000000 0.000000 1.000000
vn 0.000000 0.000000 1.000000
vn 0.000000 0.000000 1.000000
vn 0.000000 0.000000 1.000000
vn 0.000000 1.000000 -0.000000
vn 0.000000 1.000000 -0.000000
vn 0.000000 1.000000 -0.000000
vn 0.000000 1.000000 -0.000000
vn 0.003333 -0.000000 -0.999994
vn 0.003333 -0.000000 -0.999994
vn 0.003333 -0.000000 -0.999994
vn 0.003333 -0.000000 -0.999994
vn 1.000000 0.000000 0.000000
vn 1.000000 0.000000 0.000000
vn 1.000000 0.000000 0.000000
vn 1.000000 0.000000 0.000000
vn -0.999992 0.000000 0.003944
vn -0.999992 0.000000 0.003944
vn -0.999992 0.000000 0.003944
vn -0.999992 0.000000 0.003944
s off
g pCube7
usemtl initialShadingGroup
f 1/1/1 11/15/2 12/16/3 3/3/4
s 1
f 3/3/5 12/16/6 9/13/7 5/5/8
s off
f 5/5/9 9/13/10 10/14/11 7/7/12
f 2/2/13 8/9/14 6/10/15 4/4/16
f 7/11/17 1/1/18 3/3/19 5/12/20
f 9/13/21 6/6/22 8/8/23 10/14/24
f 12/16/25 11/15/26 2/2/27 4/4/28
s 1
f 9/13/7 12/16/6 4/4/29 6/6/30
s off
f 13/17/31 14/18/32 16/19/33 15/20/34
f 15/20/35 16/19/36 17/21/37 19/22/38
f 20/23/39 19/22/40 17/21/41 18/24/42
f 14/18/43 18/25/44 17/26/45 16/19/46
f 19/27/47 20/28/48 13/17/49 15/20/50
