# This file uses meters as units for non-parametric coordinates.

mtllib Fairmont_LOD3.mtl
g default
v -3382.918930 -7899.933624 1202.429390
v -3382.920837 7900.078583 1202.425575
v 749.393463 7900.078583 -2867.459297
v 749.391556 -7899.941254 -2867.459297
v -2088.634300 -7899.933624 1962.876701
v -587.523031 -7899.933624 1974.297142
v 718.181610 -7899.933624 1233.641243
v 1478.623199 -7899.933624 -60.641956
v 1490.053177 -7899.933624 -1561.750364
v -2088.634300 7900.078583 1962.876701
v -587.527323 7900.078583 1974.300957
v 718.181610 7900.078583 1233.641243
v 1478.628922 7900.078583 -60.643387
v 1490.053177 7900.078583 -1561.750364
v -2899.996948 7899.921417 -2899.995422
v -3484.851265 7899.954987 -2303.234100
v -3484.851265 -7899.993896 -2303.234100
v -2900.000000 -7900.000000 -2900.000000
vt 0.500000 0.312500
vt 0.520833 0.312500
vt 0.520833 0.688440
vt 0.500000 0.688440
vt 0.541667 0.312500
vt 0.541667 0.688440
vt 0.562500 0.312500
vt 0.562500 0.688440
vt 0.583333 0.312500
vt 0.583333 0.688440
vt 0.604167 0.312500
vt 0.604167 0.688440
vt 0.625000 0.312500
vt 0.625000 0.688440
vt 0.364684 0.765625
vt 0.421875 0.708434
vt 0.500000 0.687500
vt 0.578125 0.708434
vt 0.635316 0.765625
vt 0.656250 0.843750
vt 0.625000 0.500000
vt 0.375000 0.250000
vt 0.375000 0.463354
vt 0.161646 0.250000
vt 0.161645 0.000000
vt 0.375000 0.000000
vt 0.625000 0.750000
vt 0.376345 0.500002
vt 0.410418 0.750000
vt 0.376345 0.750000
vt 0.410418 0.500000
vn 0.008916 0.000000 -0.999960
vn 0.008916 0.000000 -0.999960
vn 0.008916 0.000000 -0.999960
vn 0.008916 0.000000 -0.999960
vn -0.999578 -0.000000 0.029064
vn -0.999578 -0.000000 0.029064
vn -0.999578 -0.000000 0.029064
vn -0.999578 -0.000000 0.029064
vn -0.506577 0.000000 0.862195
vn -0.506577 0.000000 0.862195
vn -0.506577 0.000000 0.862195
vn -0.506577 0.000000 0.862195
vn -0.007609 -0.000000 0.999971
vn -0.007609 -0.000000 0.999971
vn -0.007609 -0.000000 0.999971
vn -0.007609 -0.000000 0.999971
vn 0.493394 -0.000000 0.869806
vn 0.493394 -0.000000 0.869806
vn 0.493394 -0.000000 0.869806
vn 0.493394 -0.000000 0.869806
vn 0.862196 -0.000000 0.506575
vn 0.862196 -0.000000 0.506575
vn 0.862196 -0.000000 0.506575
vn 0.862196 -0.000000 0.506575
vn 0.999971 -0.000000 0.007612
vn 0.999971 -0.000000 0.007612
vn 0.999971 -0.000000 0.007612
vn 0.999971 -0.000000 0.007612
vn 0.869805 -0.000000 -0.493395
vn 0.869805 -0.000000 -0.493395
vn 0.869805 -0.000000 -0.493395
vn 0.869805 -0.000000 -0.493395
vn -0.714198 0.000000 -0.699943
vn -0.714198 0.000000 -0.699943
vn -0.714198 0.000000 -0.699943
vn -0.714198 0.000000 -0.699943
vn 0.000000 1.000000 0.000000
vn 0.000000 1.000000 0.000000
vn 0.000000 1.000000 0.000000
vn 0.000000 1.000000 0.000000
vn 0.000000 1.000000 -0.000001
vn 0.000000 1.000000 -0.000001
vn 0.000000 1.000000 -0.000001
vn 0.000000 1.000000 -0.000001
vn 0.000000 1.000000 0.000000
vn 0.000000 1.000000 0.000000
vn 0.000000 1.000000 0.000000
vn -0.000035 1.000000 -0.000042
vn -0.000035 1.000000 -0.000042
vn -0.000035 1.000000 -0.000042
vn -0.000035 1.000000 -0.000042
s off
g polySurface3
usemtl initialShadingGroup
f 18/29/1 15/31/2 3/21/3 4/27/4
f 16/24/5 17/25/6 1/26/7 2/22/8
f 1/1/9 5/2/10 10/3/11 2/4/12
f 5/2/13 6/5/14 11/6/15 10/3/16
f 6/5/17 7/7/18 12/8/19 11/6/20
f 7/7/21 8/9/22 13/10/23 12/8/24
f 8/9/25 9/11/26 14/12/27 13/10/28
f 9/11/29 4/13/30 3/14/31 14/12/32
f 16/28/33 15/31/34 18/29/35 17/30/36
f 3/21/37 12/18/38 13/19/39 14/20/40
f 12/18/41 2/15/42 10/16/43 11/17/44
f 3/21/45 2/15/46 12/18/47
f 16/23/48 2/15/49 3/21/50 15/31/51
