# This file uses meters as units for non-parametric coordinates.

mtllib Maybank_LOD3.mtl
g default
v -804.438354 3759.701660 2956.591553
v 198.073212 3759.701660 814.098633
v -804.438354 6982.221191 2956.591553
v 198.073212 6982.221191 881.583618
v -804.438354 6982.221191 -2956.591553
v 198.073212 6982.221191 -881.583618
v -804.438354 3759.701660 -2956.591553
v 198.073212 3759.701660 -814.098633
v -804.834106 11508.853516 2963.251953
v 86.924744 11508.853516 1040.264282
v 86.924744 11508.853516 -1026.944092
v -804.834106 11508.853516 -2949.931641
v -804.834106 14706.312500 2963.251953
v -27.942139 14706.312500 1186.989380
v -27.942139 14706.312500 -1173.669189
v -804.834106 14706.312500 -2949.931641
v -804.834106 18122.187500 2963.251953
v -215.268188 18122.187500 1780.357178
v -215.268188 18122.187500 -1767.036987
v -804.834106 18122.187500 -2949.931641
v -804.834106 21014.152344 2963.251953
v -804.834106 21014.152344 -2949.931641
v -1747.441284 3759.701660 -2956.591553
v -1747.441284 3759.701660 2956.591553
v -1747.441284 6982.221191 2956.591553
v -1747.441284 6982.221191 -2956.591553
v -1747.428345 11508.853516 2963.251953
v -1747.428345 11508.853516 -2949.931641
v -1747.428345 14706.312500 2963.251953
v -1747.428345 14706.312500 -2949.931641
v -1747.428345 18122.187500 2963.251953
v -1747.428345 18122.187500 -2949.931641
v -1752.180298 21014.152344 2963.251953
v -1752.180298 21014.152344 -2949.931641
v -1819.894409 0.000000 3031.275635
v 198.073227 0.000000 3031.275635
v -1819.894409 3759.701660 3031.275635
v 198.073227 3759.701660 3031.275635
v -1819.894409 3759.701660 -3031.275635
v 198.073227 3759.701660 -3031.275635
v -1819.894409 0.000000 -3031.275635
v 198.073227 0.000000 -3031.275635
vt 0.375000 0.000000
vt 0.625000 0.000000
vt 0.375000 0.250000
vt 0.625000 0.250000
vt 0.375000 0.500000
vt 0.625000 0.500000
vt 0.375000 0.750000
vt 0.625000 0.750000
vt 0.875000 0.000000
vt 0.875000 0.250000
vt 0.125000 0.000000
vt 0.125000 0.250000
vt 0.375000 0.250000
vt 0.625000 0.250000
vt 0.625000 0.500000
vt 0.375000 0.500000
vt 0.375000 0.250000
vt 0.625000 0.250000
vt 0.625000 0.500000
vt 0.375000 0.500000
vt 0.375000 0.250000
vt 0.625000 0.250000
vt 0.625000 0.500000
vt 0.375000 0.500000
vt 0.500000 0.250000
vt 0.500000 0.500000
vt 0.125000 0.000000
vt 0.375000 0.000000
vt 0.375000 0.250000
vt 0.125000 0.250000
vt 0.375000 0.250000
vt 0.375000 0.500000
vt 0.375000 0.500000
vt 0.375000 0.250000
vt 0.375000 0.500000
vt 0.375000 0.250000
vt 0.375000 0.500000
vt 0.375000 0.250000
vt 0.375000 0.500000
vt 0.375000 0.000000
vt 0.625000 0.000000
vt 0.625000 0.250000
vt 0.375000 0.250000
vt 0.625000 0.500000
vt 0.375000 0.500000
vt 0.625000 0.750000
vt 0.375000 0.750000
vt 0.625000 1.000000
vt 0.375000 1.000000
vt 0.875000 0.000000
vt 0.875000 0.250000
vt 0.125000 0.000000
vt 0.125000 0.250000
vn 0.903126 -0.004496 0.429351
vn 0.903126 -0.004496 0.429351
vn 0.903126 -0.004496 0.429351
vn 0.903126 -0.004496 0.429351
vn 0.903126 -0.004496 -0.429351
vn 0.903126 -0.004496 -0.429351
vn 0.903126 -0.004496 -0.429351
vn 0.903126 -0.004496 -0.429351
vn 1.000000 -0.000000 0.000000
vn 1.000000 -0.000000 0.000000
vn 1.000000 -0.000000 0.000000
vn 1.000000 -0.000000 0.000000
vn -1.000000 0.000000 0.000000
vn -1.000000 0.000000 0.000000
vn -1.000000 0.000000 0.000000
vn -1.000000 0.000000 0.000000
vn 0.903691 0.003314 0.428173
vn 0.903691 0.003314 0.428173
vn 0.903691 0.003314 0.428173
vn 0.903691 0.003314 0.428173
vn 0.999699 0.024547 0.000000
vn 0.999699 0.024547 0.000000
vn 0.999699 0.024547 0.000000
vn 0.999699 0.024547 0.000000
vn 0.903686 0.004574 -0.428171
vn 0.903686 0.004574 -0.428171
vn 0.903686 0.004574 -0.428171
vn 0.903686 0.004574 -0.428171
vn -1.000000 0.000003 0.000000
vn -1.000000 0.000003 0.000000
vn -1.000000 0.000003 0.000000
vn -1.000000 0.000003 0.000000
vn 0.911531 0.006939 0.411172
vn 0.911532 0.006939 0.411172
vn 0.911531 0.006939 0.411172
vn 0.911531 0.006939 0.411172
vn 0.999355 0.035901 0.000000
vn 0.999355 0.035901 0.000000
vn 0.999355 0.035901 0.000000
vn 0.999355 0.035901 0.000000
vn 0.911531 0.006939 -0.411172
vn 0.911531 0.006939 -0.411172
vn 0.911531 0.006939 -0.411172
vn 0.911531 0.006939 -0.411172
vn -1.000000 0.000000 0.000000
vn -1.000000 0.000000 0.000000
vn -1.000000 0.000000 0.000000
vn -1.000000 0.000000 0.000000
vn 0.907818 -0.011518 0.419206
vn 0.907818 -0.011518 0.419206
vn 0.907818 -0.011518 0.419206
vn 0.907818 -0.011518 0.419206
vn 0.998500 0.054758 0.000000
vn 0.998500 0.054758 0.000000
vn 0.998500 0.054758 0.000000
vn 0.998500 0.054758 0.000000
vn 0.907818 -0.011518 -0.419206
vn 0.907818 -0.011518 -0.419206
vn 0.907818 -0.011518 -0.419206
vn 0.907818 -0.011518 -0.419206
vn -1.000000 0.000000 0.000000
vn -1.000000 0.000000 0.000000
vn -1.000000 0.000000 0.000000
vn -1.000000 0.000000 0.000000
vn 0.894996 0.000000 0.446075
vn 0.894996 0.000000 0.446075
vn 0.894996 0.000000 0.446075
vn 0.979846 0.199755 0.000000
vn 0.979846 0.199755 0.000000
vn 0.979846 0.199755 0.000000
vn 0.979846 0.199755 0.000000
vn 0.894996 0.000000 -0.446075
vn 0.894996 0.000000 -0.446074
vn 0.894996 0.000000 -0.446074
vn -0.999999 -0.001643 0.000000
vn -0.999999 -0.001643 0.000000
vn -0.999999 -0.001643 0.000000
vn -0.999999 -0.001643 0.000000
vn 0.000000 0.000000 1.000000
vn 0.000000 0.000000 1.000000
vn 0.000000 0.000000 1.000000
vn 0.000000 0.000000 1.000000
vn 0.000000 0.000000 -1.000000
vn 0.000000 0.000000 -1.000000
vn 0.000000 0.000000 -1.000000
vn 0.000000 0.000000 -1.000000
vn 0.000000 -0.001471 0.999999
vn 0.000000 -0.001471 0.999999
vn 0.000000 -0.001471 0.999999
vn 0.000000 -0.001471 0.999999
vn 0.000000 0.001471 -0.999999
vn 0.000000 0.001471 -0.999999
vn 0.000000 0.001471 -0.999999
vn 0.000000 0.001471 -0.999999
vn 0.000000 0.000000 1.000000
vn 0.000000 0.000000 1.000000
vn 0.000000 0.000000 1.000000
vn 0.000000 0.000000 1.000000
vn 0.000000 0.000000 -1.000000
vn 0.000000 0.000000 -1.000000
vn 0.000000 0.000000 -1.000000
vn 0.000000 0.000000 -1.000000
vn 0.000000 0.000000 1.000000
vn 0.000000 0.000000 1.000000
vn 0.000000 0.000000 1.000000
vn 0.000000 0.000000 1.000000
vn 0.000000 0.000000 -1.000000
vn 0.000000 0.000000 -1.000000
vn 0.000000 0.000000 -1.000000
vn 0.000000 0.000000 -1.000000
vn 0.000000 0.000000 1.000000
vn 0.000000 0.000000 1.000000
vn 0.000000 0.000000 1.000000
vn 0.000000 0.000000 1.000000
vn 0.000000 1.000000 0.000000
vn 0.000000 1.000000 0.000000
vn 0.000000 1.000000 0.000000
vn 0.000000 1.000000 0.000000
vn 0.000000 0.000000 -1.000000
vn 0.000000 0.000000 -1.000000
vn 0.000000 0.000000 -1.000000
vn 0.000000 0.000000 -1.000000
vn 0.000000 0.000000 1.000000
vn 0.000000 0.000000 1.000000
vn 0.000000 0.000000 1.000000
vn 0.000000 0.000000 1.000000
vn 0.000000 1.000000 0.000000
vn 0.000000 1.000000 0.000000
vn 0.000000 1.000000 0.000000
vn 0.000000 1.000000 0.000000
vn 0.000000 0.000000 -1.000000
vn 0.000000 0.000000 -1.000000
vn 0.000000 0.000000 -1.000000
vn 0.000000 0.000000 -1.000000
vn 0.000000 -1.000000 0.000000
vn 0.000000 -1.000000 0.000000
vn 0.000000 -1.000000 0.000000
vn 0.000000 -1.000000 0.000000
vn 1.000000 0.000000 0.000000
vn 1.000000 0.000000 0.000000
vn 1.000000 0.000000 0.000000
vn 1.000000 0.000000 0.000000
vn -1.000000 0.000000 0.000000
vn -1.000000 0.000000 0.000000
vn -1.000000 0.000000 0.000000
vn -1.000000 0.000000 0.000000
s off
g pCube4
usemtl initialShadingGroup
f 1/1/1 2/2/2 4/4/3 3/3/4
f 5/5/5 6/6/6 8/8/7 7/7/8
f 2/2/9 8/9/10 6/10/11 4/4/12
f 23/27/13 24/28/14 25/29/15 26/30/16
f 3/3/17 4/4/18 10/14/19 9/13/20
f 4/4/21 6/6/22 11/15/23 10/14/24
f 6/6/25 5/5/26 12/16/27 11/15/28
f 26/33/29 25/29/30 27/31/31 28/32/32
f 9/13/33 10/14/34 14/18/35 13/17/36
f 10/14/37 11/15/38 15/19/39 14/18/40
f 11/15/41 12/16/42 16/20/43 15/19/44
f 28/32/45 27/31/46 29/34/47 30/35/48
f 13/17/49 14/18/50 18/22/51 17/21/52
f 14/18/53 15/19/54 19/23/55 18/22/56
f 15/19/57 16/20/58 20/24/59 19/23/60
f 30/35/61 29/34/62 31/36/63 32/37/64
f 17/21/65 18/22/66 21/25/67
f 18/22/68 19/23/69 22/26/70 21/25/71
f 19/23/72 20/24/73 22/26/74
f 32/37/75 31/36/76 33/38/77 34/39/78
f 1/1/79 3/3/80 25/29/81 24/28/82
f 5/12/83 7/11/84 23/27/85 26/30/86
f 3/3/87 9/13/88 27/31/89 25/29/90
f 12/16/91 5/5/92 26/33/93 28/32/94
f 9/13/95 13/17/96 29/34/97 27/31/98
f 16/20/99 12/16/100 28/32/101 30/35/102
f 13/17/103 17/21/104 31/36/105 29/34/106
f 20/24/107 16/20/108 30/35/109 32/37/110
f 17/21/111 21/25/112 33/38/113 31/36/114
f 21/25/115 22/26/116 34/39/117 33/38/118
f 22/26/119 20/24/120 32/37/121 34/39/122
f 35/40/123 36/41/124 38/42/125 37/43/126
f 37/43/127 38/42/128 40/44/129 39/45/130
f 39/45/131 40/44/132 42/46/133 41/47/134
f 41/47/135 42/46/136 36/48/137 35/49/138
f 36/41/139 42/50/140 40/51/141 38/42/142
f 41/52/143 35/40/144 37/43/145 39/53/146
