# This file uses meters as units for non-parametric coordinates.

mtllib MilleniaTower_LOD2.mtl
g default
v -2500.000000 0.000000 2500.000000
v 2500.000000 0.000000 2500.000000
v -2500.000000 13693.662109 2500.000000
v 2500.000000 13693.662109 2500.000000
v -2500.000000 13693.662109 -2500.000000
v 2500.000000 13693.662109 -2500.000000
v -2500.000000 0.000000 -2500.000000
v 2500.000000 0.000000 -2500.000000
v -2180.025635 13693.662109 2180.025635
v 2180.025635 13693.662109 2180.025635
v 2180.025635 13693.662109 -2180.025635
v -2180.025635 13693.662109 -2180.025635
v -2180.025635 18248.544922 2180.025635
v 2180.025635 18248.544922 2180.025635
v 2180.025635 18248.544922 -2180.025635
v -2180.025635 18248.544922 -2180.025635
v -2706.824463 18233.246094 2706.824463
v 2706.824463 18233.246094 2706.824463
v -657.469971 21868.765625 657.469971
v 657.469971 21868.765625 657.469971
v -657.469971 21868.765625 -657.469971
v 657.469971 21868.765625 -657.469971
v -2706.824463 18233.246094 -2706.824463
v 2706.824463 18233.246094 -2706.824463
v -2376.393066 13575.252930 -2880.422607
v -2823.606934 13575.252930 -2735.114258
v -2823.606934 13575.252930 -2264.885986
v -2376.393311 13575.252930 -2119.577393
v -2100.000000 13575.252930 -2500.000000
v -2376.393066 18175.253906 -2880.422607
v -2823.606934 18175.253906 -2735.114258
v -2823.606934 18175.253906 -2264.885986
v -2376.393311 18175.253906 -2119.577393
v -2100.000000 18175.253906 -2500.000000
v -2500.000000 13575.252930 -2500.000000
v -2500.000000 18175.253906 -2500.000000
v -2376.393066 13575.252930 2119.577393
v -2823.606934 13575.252930 2264.885742
v -2823.606934 13575.252930 2735.114014
v -2376.393311 13575.252930 2880.422607
v -2100.000000 13575.252930 2500.000000
v -2376.393066 18175.253906 2119.577393
v -2823.606934 18175.253906 2264.885742
v -2823.606934 18175.253906 2735.114014
v -2376.393311 18175.253906 2880.422607
v -2100.000000 18175.253906 2500.000000
v -2500.000000 13575.252930 2500.000000
v -2500.000000 18175.253906 2500.000000
v 2623.606934 13575.252930 2119.577393
v 2176.393066 13575.252930 2264.885742
v 2176.393066 13575.252930 2735.114014
v 2623.606689 13575.252930 2880.422607
v 2900.000000 13575.252930 2500.000000
v 2623.606934 18175.253906 2119.577393
v 2176.393066 18175.253906 2264.885742
v 2176.393066 18175.253906 2735.114014
v 2623.606689 18175.253906 2880.422607
v 2900.000000 18175.253906 2500.000000
v 2500.000000 13575.252930 2500.000000
v 2500.000000 18175.253906 2500.000000
v 2623.606934 13575.252930 -2880.422607
v 2176.393066 13575.252930 -2735.114258
v 2176.393066 13575.252930 -2264.885986
v 2623.606689 13575.252930 -2119.577393
v 2900.000000 13575.252930 -2500.000000
v 2623.606934 18175.253906 -2880.422607
v 2176.393066 18175.253906 -2735.114258
v 2176.393066 18175.253906 -2264.885986
v 2623.606689 18175.253906 -2119.577393
v 2900.000000 18175.253906 -2500.000000
v 2500.000000 13575.252930 -2500.000000
v 2500.000000 18175.253906 -2500.000000
vt 0.375000 0.000000
vt 0.625000 0.000000
vt 0.375000 0.250000
vt 0.625000 0.250000
vt 0.375000 0.500000
vt 0.625000 0.500000
vt 0.375000 0.750000
vt 0.625000 0.750000
vt 0.875000 0.000000
vt 0.875000 0.250000
vt 0.125000 0.000000
vt 0.125000 0.250000
vt 0.375000 0.250000
vt 0.625000 0.250000
vt 0.625000 0.500000
vt 0.375000 0.500000
vt 0.375000 0.250000
vt 0.625000 0.250000
vt 0.625000 0.500000
vt 0.375000 0.500000
vt 0.375000 0.000000
vt 0.625000 0.000000
vt 0.625000 0.250000
vt 0.375000 0.250000
vt 0.625000 0.500000
vt 0.375000 0.500000
vt 0.625000 0.750000
vt 0.375000 0.750000
vt 0.625000 1.000000
vt 0.375000 1.000000
vt 0.875000 0.000000
vt 0.875000 0.250000
vt 0.125000 0.000000
vt 0.125000 0.250000
vt 0.375000 0.312500
vt 0.425000 0.312500
vt 0.425000 0.688440
vt 0.375000 0.688440
vt 0.475000 0.312500
vt 0.475000 0.688440
vt 0.525000 0.312500
vt 0.525000 0.688440
vt 0.575000 0.312500
vt 0.575000 0.688440
vt 0.625000 0.312500
vt 0.625000 0.688440
vt 0.373591 0.064409
vt 0.548284 0.007647
vt 0.500000 0.150000
vt 0.373591 0.248091
vt 0.548284 0.304853
vt 0.656250 0.156250
vt 0.548284 0.992353
vt 0.373591 0.935591
vt 0.500000 0.837500
vt 0.373591 0.751909
vt 0.548284 0.695147
vt 0.656250 0.843750
vt 0.375000 0.312500
vt 0.425000 0.312500
vt 0.425000 0.688440
vt 0.375000 0.688440
vt 0.475000 0.312500
vt 0.475000 0.688440
vt 0.525000 0.312500
vt 0.525000 0.688440
vt 0.575000 0.312500
vt 0.575000 0.688440
vt 0.625000 0.312500
vt 0.625000 0.688440
vt 0.373591 0.064409
vt 0.548284 0.007647
vt 0.500000 0.150000
vt 0.373591 0.248091
vt 0.548284 0.304853
vt 0.656250 0.156250
vt 0.548284 0.992353
vt 0.373591 0.935591
vt 0.500000 0.837500
vt 0.373591 0.751909
vt 0.548284 0.695147
vt 0.656250 0.843750
vt 0.375000 0.312500
vt 0.425000 0.312500
vt 0.425000 0.688440
vt 0.375000 0.688440
vt 0.475000 0.312500
vt 0.475000 0.688440
vt 0.525000 0.312500
vt 0.525000 0.688440
vt 0.575000 0.312500
vt 0.575000 0.688440
vt 0.625000 0.312500
vt 0.625000 0.688440
vt 0.373591 0.064409
vt 0.548284 0.007647
vt 0.500000 0.150000
vt 0.373591 0.248091
vt 0.548284 0.304853
vt 0.656250 0.156250
vt 0.548284 0.992353
vt 0.373591 0.935591
vt 0.500000 0.837500
vt 0.373591 0.751909
vt 0.548284 0.695147
vt 0.656250 0.843750
vt 0.375000 0.312500
vt 0.425000 0.312500
vt 0.425000 0.688440
vt 0.375000 0.688440
vt 0.475000 0.312500
vt 0.475000 0.688440
vt 0.525000 0.312500
vt 0.525000 0.688440
vt 0.575000 0.312500
vt 0.575000 0.688440
vt 0.625000 0.312500
vt 0.625000 0.688440
vt 0.373591 0.064409
vt 0.548284 0.007647
vt 0.500000 0.150000
vt 0.373591 0.248091
vt 0.548284 0.304853
vt 0.656250 0.156250
vt 0.548284 0.992353
vt 0.373591 0.935591
vt 0.500000 0.837500
vt 0.373591 0.751909
vt 0.548284 0.695147
vt 0.656250 0.843750
vn 0.000000 0.000000 1.000000
vn 0.000000 0.000000 1.000000
vn 0.000000 0.000000 1.000000
vn 0.000000 0.000000 1.000000
vn 0.000000 1.000000 0.000000
vn 0.000000 1.000000 0.000000
vn 0.000000 1.000000 0.000000
vn 0.000000 1.000000 0.000000
vn 0.000000 0.000000 -1.000000
vn 0.000000 0.000000 -1.000000
vn 0.000000 0.000000 -1.000000
vn 0.000000 0.000000 -1.000000
vn 1.000000 0.000000 0.000000
vn 1.000000 0.000000 0.000000
vn 1.000000 0.000000 0.000000
vn 1.000000 0.000000 0.000000
vn -1.000000 0.000000 0.000000
vn -1.000000 0.000000 0.000000
vn -1.000000 0.000000 0.000000
vn -1.000000 0.000000 0.000000
vn 0.000000 1.000000 -0.000002
vn 0.000000 1.000000 -0.000002
vn 0.000000 1.000000 -0.000002
vn 0.000000 1.000000 -0.000002
vn 0.000000 1.000000 0.000000
vn 0.000000 1.000000 0.000000
vn 0.000000 1.000000 0.000000
vn 0.000000 1.000000 0.000000
vn 0.000000 1.000000 0.000002
vn 0.000000 1.000000 0.000002
vn 0.000000 1.000000 0.000002
vn 0.000000 1.000000 0.000002
vn 0.000000 1.000000 0.000000
vn 0.000000 1.000000 0.000000
vn 0.000000 1.000000 0.000000
vn 0.000000 1.000000 0.000000
vn 0.000000 0.000000 1.000000
vn 0.000000 0.000000 1.000000
vn 0.000000 0.000000 1.000000
vn 0.000000 0.000000 1.000000
vn 1.000000 0.000000 0.000000
vn 1.000000 0.000000 0.000000
vn 1.000000 0.000000 0.000000
vn 1.000000 0.000000 0.000000
vn 0.000000 0.000000 -1.000000
vn 0.000000 0.000000 -1.000000
vn 0.000000 0.000000 -1.000000
vn 0.000000 0.000000 -1.000000
vn -1.000000 0.000000 0.000000
vn -1.000000 0.000000 0.000000
vn -1.000000 0.000000 0.000000
vn -1.000000 0.000000 0.000000
vn 0.000000 0.491057 0.871127
vn 0.000000 0.491057 0.871127
vn 0.000000 0.491057 0.871127
vn 0.000000 0.491057 0.871127
vn 0.000000 1.000000 0.000000
vn 0.000000 1.000000 0.000000
vn 0.000000 1.000000 0.000000
vn 0.000000 1.000000 0.000000
vn 0.000000 0.491057 -0.871127
vn 0.000000 0.491057 -0.871127
vn 0.000000 0.491057 -0.871127
vn 0.000000 0.491057 -0.871127
vn 0.000000 -1.000000 0.000000
vn 0.000000 -1.000000 0.000000
vn 0.000000 -1.000000 0.000000
vn 0.000000 -1.000000 0.000000
vn 0.871127 0.491057 0.000000
vn 0.871127 0.491057 0.000000
vn 0.871127 0.491057 0.000000
vn 0.871127 0.491057 0.000000
vn -0.871127 0.491057 0.000000
vn -0.871127 0.491057 0.000000
vn -0.871127 0.491057 0.000000
vn -0.871127 0.491057 0.000000
vn -0.309017 0.000000 -0.951057
vn -0.309017 0.000000 -0.951057
vn -0.309017 0.000000 -0.951057
vn -0.309017 0.000000 -0.951057
vn -1.000000 0.000000 0.000000
vn -1.000000 0.000000 0.000000
vn -1.000000 0.000000 0.000000
vn -1.000000 0.000000 0.000000
vn -0.309017 0.000000 0.951056
vn -0.309017 0.000000 0.951056
vn -0.309017 0.000000 0.951056
vn -0.309017 0.000000 0.951056
vn 0.809017 0.000000 0.587785
vn 0.809017 0.000000 0.587785
vn 0.809017 0.000000 0.587785
vn 0.809017 0.000000 0.587785
vn 0.809017 0.000000 -0.587785
vn 0.809017 0.000000 -0.587785
vn 0.809017 0.000000 -0.587785
vn 0.809017 0.000000 -0.587785
vn 0.000000 -1.000000 0.000000
vn 0.000000 -1.000000 -0.000001
vn 0.000000 -1.000000 -0.000001
vn 0.000000 -1.000000 -0.000001
vn 0.000000 -1.000000 -0.000001
vn 0.000000 -1.000000 -0.000001
vn 0.000000 1.000000 0.000000
vn 0.000000 1.000000 0.000000
vn 0.000000 1.000000 0.000000
vn 0.000000 1.000000 0.000000
vn 0.000000 1.000000 0.000000
vn 0.000000 1.000000 0.000000
vn -0.309017 0.000000 -0.951057
vn -0.309017 0.000000 -0.951057
vn -0.309017 0.000000 -0.951057
vn -0.309017 0.000000 -0.951057
vn -1.000000 0.000000 0.000000
vn -1.000000 0.000000 0.000000
vn -1.000000 0.000000 0.000000
vn -1.000000 0.000000 0.000000
vn -0.309017 0.000000 0.951056
vn -0.309017 0.000000 0.951056
vn -0.309017 0.000000 0.951056
vn -0.309017 0.000000 0.951056
vn 0.809017 0.000000 0.587785
vn 0.809017 0.000000 0.587785
vn 0.809017 0.000000 0.587785
vn 0.809017 0.000000 0.587785
vn 0.809017 0.000000 -0.587785
vn 0.809017 0.000000 -0.587785
vn 0.809017 0.000000 -0.587785
vn 0.809017 0.000000 -0.587785
vn 0.000000 -1.000000 0.000000
vn 0.000000 -1.000000 -0.000001
vn 0.000000 -1.000000 -0.000001
vn 0.000000 -1.000000 -0.000001
vn 0.000000 -1.000000 -0.000001
vn 0.000000 -1.000000 -0.000001
vn 0.000000 1.000000 0.000000
vn 0.000000 1.000000 0.000000
vn 0.000000 1.000000 0.000000
vn 0.000000 1.000000 0.000000
vn 0.000000 1.000000 0.000000
vn 0.000000 1.000000 0.000000
vn -0.309017 0.000000 -0.951057
vn -0.309017 0.000000 -0.951057
vn -0.309017 0.000000 -0.951057
vn -0.309017 0.000000 -0.951057
vn -1.000000 0.000000 0.000000
vn -1.000000 0.000000 0.000000
vn -1.000000 0.000000 0.000000
vn -1.000000 0.000000 0.000000
vn -0.309017 0.000000 0.951056
vn -0.309017 0.000000 0.951056
vn -0.309017 0.000000 0.951056
vn -0.309017 0.000000 0.951056
vn 0.809017 0.000000 0.587785
vn 0.809017 0.000000 0.587785
vn 0.809017 0.000000 0.587785
vn 0.809017 0.000000 0.587785
vn 0.809017 0.000000 -0.587785
vn 0.809017 0.000000 -0.587785
vn 0.809017 0.000000 -0.587785
vn 0.809017 0.000000 -0.587785
vn 0.000000 -1.000000 0.000000
vn 0.000000 -1.000000 -0.000001
vn 0.000000 -1.000000 -0.000001
vn 0.000000 -1.000000 -0.000001
vn 0.000000 -1.000000 -0.000001
vn 0.000000 -1.000000 -0.000001
vn 0.000000 1.000000 0.000000
vn 0.000000 1.000000 0.000000
vn 0.000000 1.000000 0.000000
vn 0.000000 1.000000 0.000000
vn 0.000000 1.000000 0.000000
vn 0.000000 1.000000 0.000000
vn -0.309017 0.000000 -0.951057
vn -0.309017 0.000000 -0.951057
vn -0.309017 0.000000 -0.951057
vn -0.309017 0.000000 -0.951057
vn -1.000000 0.000000 0.000000
vn -1.000000 0.000000 0.000000
vn -1.000000 0.000000 0.000000
vn -1.000000 0.000000 0.000000
vn -0.309017 0.000000 0.951056
vn -0.309017 0.000000 0.951056
vn -0.309017 0.000000 0.951056
vn -0.309017 0.000000 0.951056
vn 0.809017 0.000000 0.587785
vn 0.809017 0.000000 0.587785
vn 0.809017 0.000000 0.587785
vn 0.809017 0.000000 0.587785
vn 0.809017 0.000000 -0.587785
vn 0.809017 0.000000 -0.587785
vn 0.809017 0.000000 -0.587785
vn 0.809017 0.000000 -0.587785
vn 0.000000 -1.000000 0.000000
vn 0.000000 -1.000000 -0.000001
vn 0.000000 -1.000000 -0.000001
vn 0.000000 -1.000000 -0.000001
vn 0.000000 -1.000000 -0.000001
vn 0.000000 -1.000000 -0.000001
vn 0.000000 1.000000 0.000000
vn 0.000000 1.000000 0.000000
vn 0.000000 1.000000 0.000000
vn 0.000000 1.000000 0.000000
vn 0.000000 1.000000 0.000000
vn 0.000000 1.000000 0.000000
s off
g pCube15
usemtl initialShadingGroup
f 1/1/1 2/2/2 4/4/3 3/3/4
f 13/17/5 14/18/6 15/19/7 16/20/8
f 5/5/9 6/6/10 8/8/11 7/7/12
f 2/2/13 8/9/14 6/10/15 4/4/16
f 7/11/17 1/1/18 3/3/19 5/12/20
f 3/3/21 4/4/22 10/14/23 9/13/24
f 4/4/25 6/6/26 11/15/27 10/14/28
f 6/6/29 5/5/30 12/16/31 11/15/32
f 5/5/33 3/3/34 9/13/35 12/16/36
f 9/13/37 10/14/38 14/18/39 13/17/40
f 10/14/41 11/15/42 15/19/43 14/18/44
f 11/15/45 12/16/46 16/20/47 15/19/48
f 12/16/49 9/13/50 13/17/51 16/20/52
f 17/21/53 18/22/54 20/23/55 19/24/56
f 19/24/57 20/23/58 22/25/59 21/26/60
f 21/26/61 22/25/62 24/27/63 23/28/64
f 23/28/65 24/27/66 18/29/67 17/30/68
f 18/22/69 24/31/70 22/32/71 20/23/72
f 23/33/73 17/21/74 19/24/75 21/34/76
f 25/35/77 26/36/78 31/37/79 30/38/80
f 26/36/81 27/39/82 32/40/83 31/37/84
f 27/39/85 28/41/86 33/42/87 32/40/88
f 28/41/89 29/43/90 34/44/91 33/42/92
f 29/43/93 25/45/94 30/46/95 34/44/96
s 1
f 26/47/97 25/48/98 35/49/99
f 27/50/100 26/47/97 35/49/99
f 28/51/101 27/50/100 35/49/99
f 29/52/102 28/51/101 35/49/99
f 25/48/98 29/52/102 35/49/99
s 2
f 30/53/103 31/54/104 36/55/105
f 31/54/104 32/56/106 36/55/105
f 32/56/106 33/57/107 36/55/105
f 33/57/107 34/58/108 36/55/105
f 34/58/108 30/53/103 36/55/105
s off
f 37/59/109 38/60/110 43/61/111 42/62/112
f 38/60/113 39/63/114 44/64/115 43/61/116
f 39/63/117 40/65/118 45/66/119 44/64/120
f 40/65/121 41/67/122 46/68/123 45/66/124
f 41/67/125 37/69/126 42/70/127 46/68/128
s 3
f 38/71/129 37/72/130 47/73/131
f 39/74/132 38/71/129 47/73/131
f 40/75/133 39/74/132 47/73/131
f 41/76/134 40/75/133 47/73/131
f 37/72/130 41/76/134 47/73/131
s 4
f 42/77/135 43/78/136 48/79/137
f 43/78/136 44/80/138 48/79/137
f 44/80/138 45/81/139 48/79/137
f 45/81/139 46/82/140 48/79/137
f 46/82/140 42/77/135 48/79/137
s off
f 49/83/141 50/84/142 55/85/143 54/86/144
f 50/84/145 51/87/146 56/88/147 55/85/148
f 51/87/149 52/89/150 57/90/151 56/88/152
f 52/89/153 53/91/154 58/92/155 57/90/156
f 53/91/157 49/93/158 54/94/159 58/92/160
s 5
f 50/95/161 49/96/162 59/97/163
f 51/98/164 50/95/161 59/97/163
f 52/99/165 51/98/164 59/97/163
f 53/100/166 52/99/165 59/97/163
f 49/96/162 53/100/166 59/97/163
s 6
f 54/101/167 55/102/168 60/103/169
f 55/102/168 56/104/170 60/103/169
f 56/104/170 57/105/171 60/103/169
f 57/105/171 58/106/172 60/103/169
f 58/106/172 54/101/167 60/103/169
s off
f 61/107/173 62/108/174 67/109/175 66/110/176
f 62/108/177 63/111/178 68/112/179 67/109/180
f 63/111/181 64/113/182 69/114/183 68/112/184
f 64/113/185 65/115/186 70/116/187 69/114/188
f 65/115/189 61/117/190 66/118/191 70/116/192
s 7
f 62/119/193 61/120/194 71/121/195
f 63/122/196 62/119/193 71/121/195
f 64/123/197 63/122/196 71/121/195
f 65/124/198 64/123/197 71/121/195
f 61/120/194 65/124/198 71/121/195
s 8
f 66/125/199 67/126/200 72/127/201
f 67/126/200 68/128/202 72/127/201
f 68/128/202 69/129/203 72/127/201
f 69/129/203 70/130/204 72/127/201
f 70/130/204 66/125/199 72/127/201
