# This file uses meters as units for non-parametric coordinates.

mtllib UOB_LOD3.mtl
g default
v -2500.000000 0.000000 2500.000000
v 2500.000000 0.000000 2500.000000
v -2500.000000 16476.081848 2500.000000
v 2500.000000 16476.081848 2500.000000
v -2500.000000 16476.081848 -2500.000000
v 2500.000000 16476.081848 -2500.000000
v -2500.000000 0.000000 -2500.000000
v 2500.000000 0.000000 -2500.000000
v -2162.834930 16500.723267 2162.834930
v 2162.834930 16500.723267 2162.834930
v -2162.834930 23354.470825 2162.834930
v 2162.834930 23354.470825 2162.834930
v -2162.834930 23354.470825 -2162.834930
v 2162.834930 23354.470825 -2162.834930
v -2162.834930 16500.723267 -2162.834930
v 2162.834930 16500.723267 -2162.834930
v -1770.615387 23130.679321 1770.615387
v 1770.615387 23130.679321 1770.615387
v -1770.615387 26776.184082 1770.615387
v 1770.615387 26776.184082 1770.615387
v -1770.615387 26776.184082 -1770.615387
v 1770.615387 26776.184082 -1770.615387
v -1770.615387 23130.679321 -1770.615387
v 1770.615387 23130.679321 -1770.615387
v 936.534309 27123.617554 -2142.365646
v -852.651596 27123.617554 -2177.111053
v -2142.365646 27123.617554 -936.534309
v -2177.111053 27123.617554 852.651596
v -936.534309 27123.617554 2142.365646
v 852.651596 27123.617554 2177.111053
v 2142.365837 27123.617554 936.534309
v 2177.111244 27123.617554 -852.651691
v 936.534309 28000.411987 -2142.365646
v -852.651596 28000.411987 -2177.111053
v -2142.365646 28000.411987 -936.534309
v -2177.111053 28000.411987 852.651596
v -936.534309 28000.411987 2142.365646
v 852.651596 28000.411987 2177.111053
v 2142.365837 28000.411987 936.534309
v 2177.111244 28000.411987 -852.651691
v 0.000000 27123.617554 0.000000
v 0.000000 28000.411987 0.000000
v 0.000000 12805.798340 2682.213402
v 2682.213402 12805.798340 0.000000
v 0.000000 27904.629517 2682.213402
v 2682.213402 27904.629517 0.000000
v -2682.213402 27904.629517 0.000000
v 0.000000 27904.629517 -2682.213402
v -2682.213402 12805.798340 0.000000
v 0.000000 12805.798340 -2682.213402
vt 0.375000 0.000000
vt 0.625000 0.000000
vt 0.375000 0.250000
vt 0.625000 0.250000
vt 0.375000 0.500000
vt 0.625000 0.500000
vt 0.375000 0.750000
vt 0.625000 0.750000
vt 0.875000 0.000000
vt 0.875000 0.250000
vt 0.125000 0.000000
vt 0.125000 0.250000
vt 0.375000 0.000000
vt 0.625000 0.000000
vt 0.625000 0.250000
vt 0.375000 0.250000
vt 0.625000 0.500000
vt 0.375000 0.500000
vt 0.625000 0.750000
vt 0.375000 0.750000
vt 0.875000 0.000000
vt 0.875000 0.250000
vt 0.125000 0.000000
vt 0.125000 0.250000
vt 0.375000 0.000000
vt 0.625000 0.000000
vt 0.625000 0.250000
vt 0.375000 0.250000
vt 0.625000 0.500000
vt 0.375000 0.500000
vt 0.625000 0.750000
vt 0.375000 0.750000
vt 0.875000 0.000000
vt 0.875000 0.250000
vt 0.125000 0.000000
vt 0.125000 0.250000
vt 0.375000 0.312500
vt 0.406250 0.312500
vt 0.406250 0.688440
vt 0.375000 0.688440
vt 0.437500 0.312500
vt 0.437500 0.688440
vt 0.468750 0.312500
vt 0.468750 0.688440
vt 0.500000 0.312500
vt 0.500000 0.688440
vt 0.531250 0.312500
vt 0.531250 0.688440
vt 0.562500 0.312500
vt 0.562500 0.688440
vt 0.593750 0.312500
vt 0.593750 0.688440
vt 0.625000 0.312500
vt 0.625000 0.688440
vt 0.500000 0.000000
vt 0.610485 0.045765
vt 0.500000 0.150000
vt 0.389515 0.045765
vt 0.343750 0.156250
vt 0.389515 0.266735
vt 0.500000 0.312500
vt 0.610485 0.266735
vt 0.656250 0.156250
vt 0.610485 0.954235
vt 0.500000 1.000000
vt 0.500000 0.837500
vt 0.389515 0.954235
vt 0.343750 0.843750
vt 0.389515 0.733265
vt 0.500000 0.687500
vt 0.610485 0.733265
vt 0.656250 0.843750
vt 0.375000 0.000000
vt 0.625000 0.000000
vt 0.625000 0.250000
vt 0.375000 0.250000
vt 0.625000 0.500000
vt 0.375000 0.500000
vt 0.625000 0.750000
vt 0.375000 0.750000
vt 0.625000 1.000000
vt 0.375000 1.000000
vt 0.875000 0.000000
vt 0.875000 0.250000
vt 0.125000 0.000000
vt 0.125000 0.250000
vn 0.000000 0.000000 1.000000
vn 0.000000 0.000000 1.000000
vn 0.000000 0.000000 1.000000
vn 0.000000 0.000000 1.000000
vn 0.000000 1.000000 0.000000
vn 0.000000 1.000000 0.000000
vn 0.000000 1.000000 0.000000
vn 0.000000 1.000000 0.000000
vn 0.000000 0.000000 -1.000000
vn 0.000000 0.000000 -1.000000
vn 0.000000 0.000000 -1.000000
vn 0.000000 0.000000 -1.000000
vn 1.000000 0.000000 0.000000
vn 1.000000 0.000000 0.000000
vn 1.000000 0.000000 0.000000
vn 1.000000 0.000000 0.000000
vn -1.000000 0.000000 0.000000
vn -1.000000 0.000000 0.000000
vn -1.000000 0.000000 0.000000
vn -1.000000 0.000000 0.000000
vn 0.000000 0.000000 1.000000
vn 0.000000 0.000000 1.000000
vn 0.000000 0.000000 1.000000
vn 0.000000 0.000000 1.000000
vn 0.000000 1.000000 0.000000
vn 0.000000 1.000000 0.000000
vn 0.000000 1.000000 0.000000
vn 0.000000 1.000000 0.000000
vn 0.000000 0.000000 -1.000000
vn 0.000000 0.000000 -1.000000
vn 0.000000 0.000000 -1.000000
vn 0.000000 0.000000 -1.000000
vn 1.000000 0.000000 0.000000
vn 1.000000 0.000000 0.000000
vn 1.000000 0.000000 0.000000
vn 1.000000 0.000000 0.000000
vn -1.000000 0.000000 0.000000
vn -1.000000 0.000000 0.000000
vn -1.000000 0.000000 0.000000
vn -1.000000 0.000000 0.000000
vn 0.000000 0.000000 1.000000
vn 0.000000 0.000000 1.000000
vn 0.000000 0.000000 1.000000
vn 0.000000 0.000000 1.000000
vn 0.000000 1.000000 0.000000
vn 0.000000 1.000000 0.000000
vn 0.000000 1.000000 0.000000
vn 0.000000 1.000000 0.000000
vn 0.000000 0.000000 -1.000000
vn 0.000000 0.000000 -1.000000
vn 0.000000 0.000000 -1.000000
vn 0.000000 0.000000 -1.000000
vn 1.000000 0.000000 0.000000
vn 1.000000 0.000000 0.000000
vn 1.000000 0.000000 0.000000
vn 1.000000 0.000000 0.000000
vn -1.000000 0.000000 0.000000
vn -1.000000 0.000000 0.000000
vn -1.000000 0.000000 0.000000
vn -1.000000 0.000000 0.000000
vn 0.019416 0.000000 -0.999811
vn 0.019416 0.000000 -0.999811
vn 0.019416 0.000000 -0.999811
vn 0.019416 0.000000 -0.999811
vn -0.693245 0.000000 -0.720702
vn -0.693245 0.000000 -0.720702
vn -0.693245 0.000000 -0.720702
vn -0.693245 0.000000 -0.720702
vn -0.999811 0.000000 -0.019416
vn -0.999811 0.000000 -0.019416
vn -0.999811 0.000000 -0.019416
vn -0.999811 0.000000 -0.019416
vn -0.720702 0.000000 0.693245
vn -0.720702 0.000000 0.693245
vn -0.720702 0.000000 0.693245
vn -0.720702 0.000000 0.693245
vn -0.019416 0.000000 0.999811
vn -0.019416 0.000000 0.999811
vn -0.019416 0.000000 0.999811
vn -0.019416 0.000000 0.999811
vn 0.693245 0.000000 0.720702
vn 0.693245 0.000000 0.720702
vn 0.693245 0.000000 0.720702
vn 0.693245 0.000000 0.720702
vn 0.999811 0.000000 0.019416
vn 0.999811 0.000000 0.019416
vn 0.999811 0.000000 0.019416
vn 0.999811 0.000000 0.019416
vn 0.720702 0.000000 -0.693245
vn 0.720702 0.000000 -0.693245
vn 0.720702 0.000000 -0.693245
vn 0.720702 0.000000 -0.693245
vn 0.000000 -1.000000 -0.000001
vn 0.000000 -1.000000 0.000000
vn 0.000000 -1.000000 0.000000
vn 0.000000 -1.000000 0.000000
vn 0.000000 -1.000000 -0.000001
vn 0.000000 -1.000000 0.000000
vn 0.000000 -1.000000 0.000001
vn 0.000000 -1.000000 0.000000
vn 0.000000 -1.000000 0.000001
vn 0.000000 1.000000 0.000000
vn 0.000000 1.000000 0.000001
vn 0.000000 1.000000 -0.000000
vn 0.000000 1.000000 0.000001
vn 0.000000 1.000000 -0.000001
vn 0.000000 1.000000 -0.000001
vn 0.000000 1.000000 -0.000001
vn 0.000000 1.000000 -0.000001
vn 0.000000 1.000000 0.000000
vn 0.707107 0.000000 0.707107
vn 0.707107 0.000000 0.707107
vn 0.707107 0.000000 0.707107
vn 0.707107 0.000000 0.707107
vn 0.000000 1.000000 0.000000
vn 0.000000 1.000000 0.000000
vn 0.000000 1.000000 0.000000
vn 0.000000 1.000000 0.000000
vn -0.707107 0.000000 -0.707107
vn -0.707107 0.000000 -0.707107
vn -0.707107 0.000000 -0.707107
vn -0.707107 0.000000 -0.707107
vn 0.000000 -1.000000 0.000000
vn 0.000000 -1.000000 0.000000
vn 0.000000 -1.000000 0.000000
vn 0.000000 -1.000000 0.000000
vn 0.707107 0.000000 -0.707107
vn 0.707107 0.000000 -0.707107
vn 0.707107 0.000000 -0.707107
vn 0.707107 0.000000 -0.707107
vn -0.707107 0.000000 0.707107
vn -0.707107 0.000000 0.707107
vn -0.707107 0.000000 0.707107
vn -0.707107 0.000000 0.707107
s off
g pCube6
usemtl initialShadingGroup
f 1/1/1 2/2/2 4/4/3 3/3/4
f 3/3/5 4/4/6 6/6/7 5/5/8
f 5/5/9 6/6/10 8/8/11 7/7/12
f 2/2/13 8/9/14 6/10/15 4/4/16
f 7/11/17 1/1/18 3/3/19 5/12/20
f 9/13/21 10/14/22 12/15/23 11/16/24
f 11/16/25 12/15/26 14/17/27 13/18/28
f 13/18/29 14/17/30 16/19/31 15/20/32
f 10/14/33 16/21/34 14/22/35 12/15/36
f 15/23/37 9/13/38 11/16/39 13/24/40
f 17/25/41 18/26/42 20/27/43 19/28/44
f 19/28/45 20/27/46 22/29/47 21/30/48
f 21/30/49 22/29/50 24/31/51 23/32/52
f 18/26/53 24/33/54 22/34/55 20/27/56
f 23/35/57 17/25/58 19/28/59 21/36/60
f 25/37/61 26/38/62 34/39/63 33/40/64
f 26/38/65 27/41/66 35/42/67 34/39/68
f 27/41/69 28/43/70 36/44/71 35/42/72
f 28/43/73 29/45/74 37/46/75 36/44/76
f 29/45/77 30/47/78 38/48/79 37/46/80
f 30/47/81 31/49/82 39/50/83 38/48/84
f 31/49/85 32/51/86 40/52/87 39/50/88
f 32/51/89 25/53/90 33/54/91 40/52/92
s 1
f 26/55/93 25/56/94 41/57/95
f 27/58/96 26/55/93 41/57/95
f 28/59/97 27/58/96 41/57/95
f 29/60/98 28/59/97 41/57/95
f 30/61/99 29/60/98 41/57/95
f 31/62/100 30/61/99 41/57/95
f 32/63/101 31/62/100 41/57/95
f 25/56/94 32/63/101 41/57/95
s 2
f 33/64/102 34/65/103 42/66/104
f 34/65/103 35/67/105 42/66/104
f 35/67/105 36/68/106 42/66/104
f 36/68/106 37/69/107 42/66/104
f 37/69/107 38/70/108 42/66/104
f 38/70/108 39/71/109 42/66/104
f 39/71/109 40/72/110 42/66/104
f 40/72/110 33/64/102 42/66/104
s off
f 43/73/111 44/74/112 46/75/113 45/76/114
f 45/76/115 46/75/116 48/77/117 47/78/118
f 47/78/119 48/77/120 50/79/121 49/80/122
f 49/80/123 50/79/124 44/81/125 43/82/126
f 44/74/127 50/83/128 48/84/129 46/75/130
f 49/85/131 43/73/132 45/76/133 47/86/134
